<svg id="Capa_1" data-name="Capa 1" xmlns="http://www.w3.org/2000/svg" viewBox="0 0 800 800"><defs><style>.cls-1{fill:#c1c1c1;}</style></defs><path class="cls-1" d="M399.81,662.78A1365.13,1365.13,0,0,1,200.1,648.09c-37.65-6.77-74.75-38-90.86-76-11.81-27.85-10.48-54.86,3.73-76.06,30.63-47.44,68-99.54,107.67-154.7l2.07-2.89a63.08,63.08,0,0,0,11.52-33.62c1.21-26.26,3-52.88,5.25-79.11,5-52,46.1-96.26,91.57-98.8a1359,1359,0,0,1,137.79,0c45.57,2.53,86.64,46.77,91.65,98.58,2.3,26.45,4.06,53.07,5.26,79.34a63.26,63.26,0,0,0,11.53,33.62l2.06,2.88c39.63,55.16,77,107.26,107.87,155,14,20.91,15.34,47.92,3.53,75.77-16.11,38-53.2,69.18-90.2,75.85A1372.85,1372.85,0,0,1,399.81,662.78ZM400,166.59c-22.3,0-44.62.56-66.77,1.68-24.5,1.38-49.61,30.57-52.58,61.25-2.19,25.48-3.92,51.54-5.1,77.25a103.65,103.65,0,0,1-19.27,55.87l-2.07,2.88c-39.3,54.72-76.43,106.42-106.69,153.3-8.54,12.73-3.78,28.74-.21,37.17,10.62,25,36.19,47.09,59.46,51.27a1324.06,1324.06,0,0,0,387.06-.1C616.48,603.08,642,581,652.65,556c3.57-8.43,8.33-24.44,0-36.88-30.47-47.17-67.6-98.87-106.9-153.59l-2.07-2.88a103.67,103.67,0,0,1-19.26-55.87h0c-1.18-25.7-2.9-51.76-5.13-77.44-2.95-30.48-28.06-59.67-52.65-61C444.56,167.15,422.29,166.59,400,166.59Z"/><path class="cls-1" d="M400,762c-70.07,0-127.07-53.78-127.07-119.87a20.69,20.69,0,0,1,41.37,0c0,43.29,38.45,78.5,85.7,78.5s85.7-35.21,85.7-78.5a20.69,20.69,0,0,1,41.37,0C527.06,708.24,470.06,762,400,762Z"/><path class="cls-1" d="M400,166.63a20.7,20.7,0,0,1-20.69-20.69V58.67a20.69,20.69,0,0,1,41.38,0v87.27A20.7,20.7,0,0,1,400,166.63Z"/></svg>