<svg id="Capa_1" data-name="Capa 1" xmlns="http://www.w3.org/2000/svg" viewBox="0 0 5717.62 800"><defs><style>.cls-1,.cls-2{fill:#a1a5a6;}.cls-1{fill-rule:evenodd;}.cls-3{fill:#e5e9ec;}</style></defs><path class="cls-1" d="M774.65,174.7c62.3-30.49,96.66-65.19,91.58-93.93-10.68-60.4-193.75-70.13-382.68-36.59-86.46,15.36-169.15,38.4-225.13,61.25a42.67,42.67,0,0,1,5.05-.05c24.2.67,22.72,15.71,22.72,15.71l0,9.19H266.94v-6.23c0-4.43-5.39-4.73-5.39-4.73-4.13,0-5.09,2.81-5.09,2.81-2.29,4.27,1.62,8,1.62,8,2,2.22,12,6.86,12,6.86a70.29,70.29,0,0,1,8.48,4.5c9.82,5.9,8.93,17.12,8.93,17.12V166c-1.18,18.29-26.41,17.77-26.41,17.77-26.41,0-25.83-17.33-25.83-17.33v-9.06h20.55v6.24c0,5.32,5.13,5.55,5.13,5.55,5.61.22,6.08-5.2,6.08-5.2.76-5.28-5.05-8.6-5.05-8.6-5.75-2.95-15.34-8.11-15.34-8.11a25.24,25.24,0,0,1-6.64-5.9c-3.4-4.28-3.17-10.92-3.17-10.92v-5.76c0-8,2.14-10.25,2.14-10.25l.28-.5c-69,31.89-111.26,68.85-105.91,99.25,10.86,61.65,183.51,69.73,386.58,38.46,93.49-14.4,174.87-40.9,236.45-68.35-.44,0-.9,0-1.36,0,0,0-24.88,2-25.47-18V126.4S726.45,105,754.33,105c0,0,18.15-.59,22.95,10.18,0,0,2.37,2.89,1.73,14.79H759.68v-6.1s0-4.92-5-4.92c0,0-5.24.22-5.24,4.35v40.13s-.22,5.39,5.68,5.39c0,0,4.84-.11,4.84-5.78v-11.6h-5.27V140.64h24.84v22.8s-.06,4.79-2.06,7.59a26.83,26.83,0,0,1-2.77,3.67Zm-70.81,6.5H681.07l-20.32-44.81h-.85L661,181.2H641.93V107.92H665.4L685,152.37h.84l-1.38-44.46h19.35V181.2ZM584.07,163c0,6.21,5.9,5.9,5.9,5.9,5.6,0,5.32-6.05,5.32-6.05V107.6h20.49v55.91c0,20.15-25.52,19.85-25.52,19.85-29.36,0-27.21-20.81-27.21-20.81v-55h21l.06,55.4Zm-64.38-32.72v-6.23c0-4.43-5.38-4.73-5.38-4.73-4.14,0-5.09,2.81-5.09,2.81-2.29,4.27,1.62,8,1.62,8,2,2.21,12,6.86,12,6.86a69.89,69.89,0,0,1,8.49,4.5c9.81,5.9,8.92,17.12,8.92,17.12V166c-1.18,18.29-26.4,17.78-26.4,17.78-26.42,0-25.84-17.34-25.84-17.34v-9.06h20.55v6.24c0,5.32,5.14,5.55,5.14,5.55,5.6.22,6.07-5.2,6.07-5.2.77-5.28-5-8.6-5-8.6-5.75-2.95-15.34-8.11-15.34-8.11a25,25,0,0,1-6.64-5.9c-3.4-4.28-3.18-10.92-3.18-10.92v-5.76c0-8,2.14-10.25,2.14-10.25,5.46-10.26,24.49-9,24.49-9,24.2.66,22.72,15.71,22.72,15.71l0,9.19ZM418.47,107.9,424.65,148h1.5l6.47-40.11h31.9l2.06,73.29H447.4l-.46-55.2h-1.32l-10,55.19H415.56L405.45,126H404l-.23,55.22H384.64l1.61-73.29Zm-74.85,73.21-7.51-56.81h-1.68l-7.53,56.81H306.37l12.69-73.27h32.41l12.69,73.27Z"/><path class="cls-1" d="M1803,101.36c-36.86,0-56.48,20.67-57.24,47.47-5.29-29.15-30.46-48.19-59.11-48.19-28.5,0-52.82,19-58.12,47.77-.1-25.61-20.11-47.72-46.13-47.72a40.9,40.9,0,0,0-29,12V75.27H1525.6V158.5a79,79,0,0,1-.48,8.55c-1.69,17.29-13.32,25.82-26,25.82-13.17,0-25.06-6.22-25.42-25.73-.06-3.37-.15-4.77-.15-7.16V128.82h43.16V102.65h-43.16V75.27h-28.11v73.28a59.35,59.35,0,0,0-104.3-25.94V101.36h-3.08c-36.21,0-55.78,20-57.18,46.06-5.32-26.45-27.2-46.06-54.85-46.06-14.47,0-25.78,5.26-34.62,14.09V75.07h-27.13v70.19c0,5.18.15,10.06.21,14.74.39,32.47,23.11,59.11,58.31,59.11,30.37,0,52.49-19.77,58-46.11v43.33h27.81V162.24c0-2.46.14-5.2.22-7.73.52-16.48,11.31-26.3,28.48-26.59a59.33,59.33,0,1,0,108.14,43.52v.08c0,28.49,22.88,47.92,50.44,47.92,11.62,0,21.88-5,29.71-13.12v10h27.73V157.45c0-1.4.07-2.53.1-3.61.7-18.89,11.77-27.1,23.93-27.1s22.49,8.24,22.91,27c.09,1.63.11,2.72.11,4.55v58h28.11v-44c5.29,28.43,29.39,46.78,58.14,46.78,32.61,0,51-20.87,56-42.69h-27.19c-2.38,7.76-12,19.67-28.8,19.67-15.11,0-28-10.32-31.26-27.18h90.34v47.44h27.81V162.24c0-2.46.14-5.2.23-7.73.52-16.73,11.61-26.62,29.23-26.62H1806V101.36Zm-580.15,91.05A32.41,32.41,0,1,1,1255.22,160a32,32,0,0,1-32.41,32.41Zm164.4,0A32.41,32.41,0,1,1,1419.62,160a32,32,0,0,1-32.41,32.41ZM1656.57,147c4.57-14.16,16.36-22.92,30-22.92,17.59,0,28.13,14.11,30.13,22.92Z"/><path class="cls-1" d="M2376.49,104.07H2354l-31.49,86.39H2345l31.48-86.39Zm-85.44,184.37c-1.39,0-2.79,0-4.18-.06l28.86-79.31h39.69c7,0,14.64-5.35,17-11.9l31.29-86c5.14-14.09-2.92-25.59-17.92-25.59h-55.08l-46.22,127h0l-26.21,72A141.22,141.22,0,0,1,2253,11.28l-27,74.32h0l-45,123.47h29.93l38.23-104.92h22.49l-38.23,104.92,29.9,0,35.63-97.9C2304,97.1,2296,85.6,2281,85.6h-25.15l28.88-79.37q3.17-.17,6.33-.16a141.19,141.19,0,1,1,0,282.37Z"/><path class="cls-1" d="M2850.9,168.51c15.15.33,25.32-2.1,24.68,14.58-1.46,3.38-3.07,5.38-7.9,6.26l-17.2-.17.42-20.67Zm17-33.48-17.09-.06V114.38c7.73-.14,16.35-1.4,20.72,3.82,4.9,5.85,2.75,15.49-3.64,16.83Zm-67.51-21.15.19,76.8c-30.78.29-26.54,29.79-3.17,30s47.1-.1,70.57-.11c25.58,0,42.75,2,51.26-19.39,8-20.09.64-41.43-15.18-49.36,8.08-17.42,17.39-30.45,2.93-51.89-14.3-21.2-30.6-19.13-50-19.13-33.44,0-88-10-78.75,20.92C2781.56,112.57,2789.47,112.82,2800.43,113.88Z"/><path class="cls-1" d="M3274.31,115.25a22.8,22.8,0,0,1,13.29,0c14.22,5.69,10.17,21,10.17,45.66,0,7.24,1.19,20.93-1.55,27.11-2,4.55-8.54,8.67-15.26,7.71-6.72,1-13.25-3.16-15.27-7.71-2.73-6.18-1.55-19.87-1.55-27.11,0-24.63-4-40,10.17-45.66ZM3263.6,80.8c-35,8.93-65,42.25-54.4,88.51,7.84,34.1,43.79,64.84,88.06,54.3,34.14-8.13,64-43.76,53.92-88.27C3343.48,101.26,3307.64,69.58,3263.6,80.8Z"/><path class="cls-1" d="M3004.22,140.31l7.62,20.79L2996,161l8.21-20.72Zm16.1,48c1.93,2.08,2.15-3.36,1.32,4l-5.09,1.6c-9.66,6.32-6.82,19.93,2.08,25,6.78,3.85,28.58,2.2,37.47,2.2,12,0,26.67,2,30.91-8.89,8-20.47-16.79-21.15-17.61-21.64-4.8-2.87-27.4-75.69-30-83.39L3032.31,86c-2.86-7.29-.29-3.19-4.42-5.19h-41.15c-4.6,1.28-18.39,47.25-20.72,54.28-6.08,18.39-14.68,38.31-19.15,56.06-11.61.39-22.84,5.75-18.83,19.44,3.29,11.23,16.3,10.47,29.32,10.46,10.69,0,29.07,1.49,36.2-3.54,3.84-2.71,6.55-8.77,4.8-15.73-1.63-6.5-5.54-6.57-9.28-11.08l1.7-7.59,27.53-.38Z"/><path class="cls-1" d="M3164.24,81.51c-37.22,0-54.69,5.74-72.79,26.95-15.18,17.79-20.28,54.35-7.42,79.35,34.28,66.61,128.57,29.11,121.06-8.05-1.29-6.34-6.7-11.32-14-10.51-5.94.67-11.19,6.85-14.35,10.47-5.11,5.83-23.93,18.5-36.25,11.19-11.18-6.64-11.68-22.8-11.59-39.4.08-14.83,1.51-34.17,14.41-37.92,16.12-4.7,28.34,2.64,33.5,14.26,4.17,9.37,21.88,22.62,23.32-6.07,1-19,3.12-58.57-20.86-52.32a16.19,16.19,0,0,0-7.9,4.6C3168.17,77.66,3170.1,79,3164.24,81.51Z"/><path class="cls-1" d="M3408.64,107.47l16.22-26.65-6.72-.45-20.37,0-6.2.08C3393.72,86.49,3404.56,103.5,3408.64,107.47Z"/><path class="cls-1" d="M3371.17,107.47l16.23-26.74-6.87-.35h-20.38l-5.91.21C3356.18,85.86,3367.41,104.48,3371.17,107.47Z"/><path class="cls-1" d="M2711.34,107.36c3.7-3.07,14.46-21.58,16.74-26.62l-32.75-.4C2697.55,86.53,2707.7,102.38,2711.34,107.36Z"/><path class="cls-1" d="M2748.48,107.09c4.92-4.15,15.32-22,16.87-26.71h-32.6Z"/><polygon class="cls-1" points="2996.01 161.03 3011.84 161.1 3004.22 140.31 2996.01 161.03"/><path class="cls-1" d="M3016.55,193.86l5.09-1.6c.83-7.34.61-1.9-1.32-4C3018.34,193.91,3023.68,187.88,3016.55,193.86Z"/><path class="cls-2" d="M3860.92,54.74H4023.3v9.18h9.17V91.56h-9.17v9.17H3860.92V91.56h-9.17V63.92h9.17V54.74Zm150.24,26.13,8.24-15.11h-8l-3.81,8.12-3.81-8.12h-8.12L4003.91,81v8.71h7.25V80.87Zm-17.08,8.84V84.13h-11.22V80.37H3992V74.78h-9.13V71.35h10.79V65.76h-18V89.71Zm-20.66,0V84.13h-10V65.76h-7.25V89.71ZM3938.3,65.76h-6.79V89.71h6.94V82.13l-.27-5.46,7.89,13h6.79V65.76h-6.94v7.62l.28,5.46-7.9-13.08Zm-26.43,23.95.83-3.16h7.22l.86,3.16H3928l-7.92-23.95h-7.38l-7.93,23.95Zm6.79-8.15h-4.58l2.25-8.58,2.33,8.58Zm-31.28-9.51h6.51V89.71h7.25V72.05h6.52V65.76h-20.28v6.29Zm-3,.67a9.43,9.43,0,0,0-.83-3,7.51,7.51,0,0,0-1.79-2.41,8.1,8.1,0,0,0-2.84-1.62,12.52,12.52,0,0,0-4-.6,14.39,14.39,0,0,0-3.83.48,9,9,0,0,0-3,1.44,6.59,6.59,0,0,0-2,2.39,7.61,7.61,0,0,0-.72,3.34,7.31,7.31,0,0,0,.55,2.92,5.8,5.8,0,0,0,1.44,2,8.16,8.16,0,0,0,2,1.36,14.91,14.91,0,0,0,2.33.89c.81.24,1.59.45,2.34.64s1.43.38,2,.58a4.61,4.61,0,0,1,1.44.74,1.41,1.41,0,0,1,.54,1.11,1.33,1.33,0,0,1-.37,1,2.42,2.42,0,0,1-1,.6,5.39,5.39,0,0,1-1.59.2,4,4,0,0,1-1.07-.15,3.42,3.42,0,0,1-1-.45,2.57,2.57,0,0,1-.77-.77,2.94,2.94,0,0,1-.42-1.12h-6.95a7.61,7.61,0,0,0,.77,3.08,8.28,8.28,0,0,0,2,2.55,9.54,9.54,0,0,0,3.06,1.74,11.85,11.85,0,0,0,4,.64,16.09,16.09,0,0,0,4.19-.51,9.45,9.45,0,0,0,3.28-1.53,7.09,7.09,0,0,0,2.13-2.57,8.4,8.4,0,0,0,.76-3.63,6.7,6.7,0,0,0-.55-2.79,5.58,5.58,0,0,0-1.44-2,8,8,0,0,0-2-1.32,17.26,17.26,0,0,0-2.33-.9c-.81-.24-1.58-.45-2.34-.65s-1.43-.39-2-.6a4.84,4.84,0,0,1-1.44-.75,1.45,1.45,0,0,1-.54-1.11,1.11,1.11,0,0,1,.55-1,3.41,3.41,0,0,1,1.75-.36,4.67,4.67,0,0,1,1,.11,3.14,3.14,0,0,1,.87.33,2,2,0,0,1,.67.61,2.36,2.36,0,0,1,.37,1Z"/><path class="cls-2" d="M4263,154.92h26.4v81.92h29.38V154.92h26.4V125.77H4263v29.15Zm-369,35.48a68,68,0,0,1,7.07.26,18.33,18.33,0,0,1,5.6,1.26,7.85,7.85,0,0,1,3.7,3.11,10.8,10.8,0,0,1,1.31,5.71,10,10,0,0,1-1.84,6.35,9.12,9.12,0,0,1-4.94,3,25.7,25.7,0,0,1-7.1.8h-14V190.4Zm1.08-38.72c1.73,0,3.36,0,4.92.16a13.15,13.15,0,0,1,4.18,1,6.16,6.16,0,0,1,2.87,2.62,9.92,9.92,0,0,1,1.09,5,10,10,0,0,1-1.42,5.4,8.8,8.8,0,0,1-3.9,3.24,14.07,14.07,0,0,1-5.7,1.08h-13.33V151.68Zm4.36,85.16a76.8,76.8,0,0,0,17.32-1.75,36.66,36.66,0,0,0,13.31-5.68,25.29,25.29,0,0,0,8.52-10.34c2-4.29,3-9.51,3-15.71a33,33,0,0,0-1.89-11.26,23.72,23.72,0,0,0-5.48-8.89,20.54,20.54,0,0,0-9-5.3,31.28,31.28,0,0,0,8.75-9.51,28.51,28.51,0,0,0,2.93-6.74,29.06,29.06,0,0,0,1.11-8c0-5.5-1.07-10.05-3.09-13.68a22.08,22.08,0,0,0-8.43-8.56A38.89,38.89,0,0,0,3914,127a83.07,83.07,0,0,0-15.49-1.26h-46.79V236.84Zm96-86.85a13.61,13.61,0,0,1,7.14,1.57,15.84,15.84,0,0,1,5.28,4.67,27.1,27.1,0,0,1,3.59,7,44.5,44.5,0,0,1,2,8.44,63.22,63.22,0,0,1,.65,9.05,70.06,70.06,0,0,1-1,12.72,36.1,36.1,0,0,1-3.22,10.13,17.24,17.24,0,0,1-5.73,6.66,14.84,14.84,0,0,1-8.46,2.42,14.39,14.39,0,0,1-7.53-2,16.25,16.25,0,0,1-5.25-5.19,28.49,28.49,0,0,1-3.29-7.4,51,51,0,0,1-1.73-8.62,75.08,75.08,0,0,1-.5-8.76,69.4,69.4,0,0,1,.54-8.59,46.62,46.62,0,0,1,1.82-8.28,27.28,27.28,0,0,1,3.33-7.07,15.64,15.64,0,0,1,5.15-4.91,14,14,0,0,1,7.2-1.85Zm.26-27.15a48.1,48.1,0,0,0-19.9,4.09,43.72,43.72,0,0,0-15.46,11.59,53.7,53.7,0,0,0-10,18.15,76,76,0,0,0-3.54,23.71,84.69,84.69,0,0,0,3.52,25.22,52.73,52.73,0,0,0,9.95,18.64,42.39,42.39,0,0,0,15.44,11.57,49.86,49.86,0,0,0,20,4,48.74,48.74,0,0,0,15.73-2.52,43.7,43.7,0,0,0,13.49-7.41,47,47,0,0,0,10.54-12,59.58,59.58,0,0,0,6.85-16.48,83.93,83.93,0,0,0,2.45-20.64,77.5,77.5,0,0,0-1.91-17.28,63.22,63.22,0,0,0-5.75-15.76,49.32,49.32,0,0,0-9.71-12.88,42.56,42.56,0,0,0-13.78-8.74,48.73,48.73,0,0,0-17.91-3.19ZM4138.94,158a44.59,44.59,0,0,0-3.86-13.7,35.19,35.19,0,0,0-8.26-11.19,37.46,37.46,0,0,0-13.13-7.53,57.24,57.24,0,0,0-18.47-2.75,67,67,0,0,0-17.7,2.21,42.15,42.15,0,0,0-14,6.68,30.44,30.44,0,0,0-9.23,11.08,34.84,34.84,0,0,0-3.33,15.51,34.18,34.18,0,0,0,2.53,13.52,27.3,27.3,0,0,0,6.65,9.46,37.89,37.89,0,0,0,9.41,6.3,70.43,70.43,0,0,0,10.79,4.14c3.72,1.11,7.31,2.08,10.79,3s6.63,1.77,9.42,2.7a21.41,21.41,0,0,1,6.64,3.44,6.51,6.51,0,0,1,2.54,5.15,6.37,6.37,0,0,1-1.75,4.44,10.88,10.88,0,0,1-4.83,2.78,25.05,25.05,0,0,1-7.34.95,18.43,18.43,0,0,1-5-.69,15.72,15.72,0,0,1-4.55-2.09,11.91,11.91,0,0,1-3.57-3.57,14.08,14.08,0,0,1-2-5.22h-32.08a35.25,35.25,0,0,0,3.57,14.27,37.42,37.42,0,0,0,9.23,11.83,43.75,43.75,0,0,0,14.12,8.1,55.22,55.22,0,0,0,18.36,3,74.22,74.22,0,0,0,19.33-2.37,44.31,44.31,0,0,0,15.14-7.09,32.3,32.3,0,0,0,9.84-12,38.64,38.64,0,0,0,3.53-16.84,31.56,31.56,0,0,0-2.53-12.93,26.76,26.76,0,0,0-6.65-9.08,38.91,38.91,0,0,0-9.42-6.14,78,78,0,0,0-10.79-4.14q-5.56-1.66-10.78-3c-3.48-.87-6.63-1.82-9.42-2.8a21.49,21.49,0,0,1-6.65-3.5,6.64,6.64,0,0,1-2.53-5.14,5.18,5.18,0,0,1,2.55-4.68c1.73-1.08,4.43-1.64,8.1-1.64a21.28,21.28,0,0,1,4.66.48,13.87,13.87,0,0,1,4,1.52,8.87,8.87,0,0,1,3.1,2.85,10.68,10.68,0,0,1,1.73,4.71Zm1.85-3.09h26.39v81.92h29.39V154.92H4223V125.77h-82.17v29.15Zm116.43,81.92V125.77h-28.8V236.84Zm185.6-68.65q-1.29-14.31-7.27-24.45A39.73,39.73,0,0,0,4419,128.26q-10.53-5.4-25.52-5.42a46.11,46.11,0,0,0-15.6,2.62,44.34,44.34,0,0,0-13.44,7.56,48,48,0,0,0-10.53,12.08,59.55,59.55,0,0,0-6.88,16.17,78,78,0,0,0-2.45,19.88,78.94,78.94,0,0,0,3.56,24.4A52.11,52.11,0,0,0,4358.48,224a44.33,44.33,0,0,0,16.35,11.7,56.34,56.34,0,0,0,21.81,4.09,50,50,0,0,0,17.85-3.14,41.84,41.84,0,0,0,14.21-9.1,46,46,0,0,0,9.92-14.45,62.69,62.69,0,0,0,4.88-19.28h-30.92a31.74,31.74,0,0,1-2.52,9.61,16.25,16.25,0,0,1-5.36,6.69,14.54,14.54,0,0,1-8.6,2.52,18,18,0,0,1-9.92-2.55,16,16,0,0,1-5.88-6.73,32.63,32.63,0,0,1-2.82-9.67,74.85,74.85,0,0,1-.72-11.29,64.33,64.33,0,0,1,2.18-17.92c1.45-4.81,3.51-8.43,6.22-10.85a14.06,14.06,0,0,1,9.71-3.62c5.09,0,9.13,1.62,12.15,4.75s4.77,7.64,5.29,13.45Zm37.07,68.65v-43h29v43h30.71V125.77H4508.9v37.48h-29V125.77h-30.71V236.84Z"/><path class="cls-1" d="M2892,549.31c-3.44-.86-7.1-1.5-10.76-2.36-20.21-3.87-59.78-9.25-101.93,3.66,0,0-30.1,9-34,23.87-3.66,15-.86,22.14,4.51,28.59s41.72,42.15,52.69,60.43,12.9,26,2.79,36.77C2795.05,711,2768.6,728,2721.51,714.9c0,0-37.85-11.4-66.24-35.91,0,0,10.33,24.29,12.69,36.12,0,0,60.21,18.71,88.38,19.79,28.39,1.07,68.82-7.31,88-35.49s.21-51.39-12.69-66.23c-12.9-15-29.89-30.11-36.77-41.5-6.88-11.18-10.11-22.58,6.23-27.74,16.35-5.38,51.61-6.88,65.16-2.15,13.33,4.94,12.26,14,3.87,27.74h28c6.66,0,11,.21,11,.21s14.19-11.61,12.25-23c-1.5-9.24-13.76-14-29.24-17.42Zm448.58,146.88c8-3,17-6.45,27.09-9.68,37-12.26,71.18-21.5,71.18-21.5,2.15-.22,9.89,3.87,13.55,6.45s12.47,7.74,12.47,7.74c-35.91,1.51-87.95,18.28-124.29,31.61-20.86,7.53-36.77,14-41.29,16.13-12.9,5.38-19.35,3.87-20.64,3.66a82.84,82.84,0,0,1-9.68-4.74c-5.16-2.79-11.18-6.23-14.62-9-6.67-5.16-2.37-18.06-2.37-18.06,2.15-8,8.82-18.92,17-30.32,17.63-24.52,41.72-51,41.72-51a165.57,165.57,0,0,1,29.89-12.25c6.45-1.72,10.53-2.58,10.53-2.58,39.57-8.61,50.11,0,51.4,1.72,1.51,1.5,5.59,7.09-24.73,34.4-11.61,10.11-24.94,18.28-37.2,24.73A281,281,0,0,1,3303,679.63c-3.44,4.3-8.6,15.27-12.47,23.87-4.08,8.6,1.29,10.75,9,9.25,5.6-1.29,19.57-8.17,41.08-16.56Zm0-48.82a97.31,97.31,0,0,0,11-8.17c10.33-9.67,16.78-18.28,9.68-21.93,0,0-7.74-3-20.64,9.67l-.86.87c-13.33,13.33-24.09,29.89-22.58,31.39,1.07,1.08,13.12-4.73,23.44-11.83ZM3269,559.21c.86,0,6-.43,1.07,5.16-.43.43-.64.86-1.07,1.29-8.17,9-46.24,48.17-53.55,63.22,0,0-2.79,6.45,2.37,2.8,5.16-3.44,29.67-17.85,29.67-17.85s12.48-1.72,21.51-2.15a64.29,64.29,0,0,1,6.88.21c5.16.86,13.12,4.3,11.4,8.6A186.07,186.07,0,0,1,3269,649.74a243.12,243.12,0,0,1-36.13,38.92c-17.63,14.62-29,24.73-38.06,30.54-9.25,5.81-16.13,7.1-24.3,4.08a99.77,99.77,0,0,1-12-5.16c-11.4-5.37-21.51-11.39-27.1-14,0,0-4.3-2.58-2.15-6.46,2.15-4.08,9.68-16.77,10.75-20.21,0,0-17.85-1.72-59.78,33.12,0,0-4.95,6.45-11.4,4.51s-18.49-10.53-18.49-10.53-1.51-1.3,0-4.31c1.72-3,8.39-11.82,8.39-11.82s3.22-4.09-3-1.29c-6.45,2.58-22.79,12-34.83,23,0,0-6.24,6.45-14.63,4.3-8.17-2.15-19.56-8.17-19.56-8.17s-2.37-1.08.21-6.24c2.8-5.16,27.53-45.37,44.52-63.22,0,0,2.58-3-1.08-4.73a47,47,0,0,1-6.45-3.87s-49.25,47.52-80.64,68.81c-21.72,14.84-36.56,25.16-51.18,24.94-6.45,0-12.91-2.15-20-6.45,0,0-10.54-5.37-9.68-15.48.65-9,7.1-34,29.68-59.78,3.65-4.09,7.95-8.39,12.68-12.91,33.12-29.89,71.4-26.23,83.66-21.28,12,4.73,15.26,19.14-10.33,30.53,0,0-5.59,4.3-27.52,5.38,0,0,14.84-15.06,15.7-22.15.86-6.88-7.31-7.1-18.28,1.5s-44.09,44.3-47.74,70.32c-3.87,26,26.88,3.44,26.88,3.44s35.7-25.37,58.49-46.45c22.8-20.64,28.17-26.23,28.17-26.88.22-.64.86-.43,0-1.29,0,0-8.17-4.51-2.58-9.89s23-17.2,33.55-19.78c0,0,4.73-2.37,7.52.86,2.8,3,.43,4.73-1.07,5.8-1.51.86-5,4.95,2.15,9.25,6.67,4.52,27.1,14.62,24.08,19.14-2.79,4.52-35.48,39.78-39.35,49.89,0,0,0,2.58,2.8.86,2.79-1.51,35.48-20.43,46.45-24.73,0,0,27.74-34.84,37-43.22,0,0,21.29,1.5,30.11,5.8,0,0,3.66,2.58-.43,6.67-4.3,3.87-29,28.81-40,46.45,0,0-4.51,6.66.65,5.16,5.16-1.72,30.1-13.76,42.58-16.34a21.61,21.61,0,0,1,1.29-2.16c4.51-6.45,19.35-27.52,36.34-49,12.26-15.7,25.8-31.62,37.2-42.15,0,0,21.93-3.44,37-3.87Zm-74.19,129.45c3.44-3.44,7.09-7.52,11-11.82,16.55-20.22,21.71-27.32,19.13-32.48,0,0-10.53-1.07-30.1,15.49a32.62,32.62,0,0,0-5,4.51c-22.79,20.86-29.46,41.51-23.87,42.37,4.3.64,15.92-5.59,28.82-18.07Zm-36.34-120.42a35.07,35.07,0,0,1,9.89.21c11.83,2.58,16.77,14,8.6,25.16-4.95,6.67-12,8.61-18.49,9a36.32,36.32,0,0,1-10.76-.87c-5.59-1.29-18.06-12.68-7.31-24.94,5.16-6,12.26-8.17,18.07-8.6Z"/><path class="cls-1" d="M3409.43,697.88h-.86a11.74,11.74,0,0,0-9,3.66,13.49,13.49,0,0,0-2.8,4.3,12.81,12.81,0,0,0-1.07,4.95,10.31,10.31,0,0,0,1.07,4.94,12.67,12.67,0,0,0,2.8,4.09,10.56,10.56,0,0,0,4.09,2.79,13.54,13.54,0,0,0,4.94,1.08h.86a14.42,14.42,0,0,0,4.09-1.08,13.39,13.39,0,0,0,4.3-2.79,10.63,10.63,0,0,0,2.79-4.09,14.65,14.65,0,0,0,0-9.89,11.38,11.38,0,0,0-2.79-4.3,14.86,14.86,0,0,0-4.3-2.8,12.57,12.57,0,0,0-4.09-.86Zm0,12a18.8,18.8,0,0,0,2.8-.64,2.79,2.79,0,0,0,1.07-2.37,3.08,3.08,0,0,0-1.07-2.36,4.9,4.9,0,0,0-2.8-.65h-4.08v6h4.08Zm0-7.74a9,9,0,0,1,4.73,1.08,3.68,3.68,0,0,1,1.72,3.44,3.74,3.74,0,0,1-1.07,3,4.48,4.48,0,0,1-2.8,1.5l3.66,7.75h-2.8l-3.44-7.32-.21-.21h-3.87V719H3403V702.18h6.45Zm0,23h-.86a12.38,12.38,0,0,1-5.59-1.07,13.24,13.24,0,0,1-4.73-3.23,12.72,12.72,0,0,1-3-4.51,13,13,0,0,1-1.08-5.59,12.4,12.4,0,0,1,1.08-5.6,11.63,11.63,0,0,1,3.22-4.73,13.46,13.46,0,0,1,4.52-3.22,16.06,16.06,0,0,1,5.59-1.08h.86a31,31,0,0,1,4.73,1.08,15.4,15.4,0,0,1,8,8,15.16,15.16,0,0,1,0,11.19,17.21,17.21,0,0,1-3.23,4.51,13.24,13.24,0,0,1-4.73,3.23,12.63,12.63,0,0,1-4.73,1.07Z"/><path class="cls-2" d="M4288.24,559.93c-37.49,0-59.14,28.11-59.14,66.62s21.65,66.61,59.14,66.61,59.15-28.1,59.15-66.61S4325.74,559.93,4288.24,559.93Zm0,110.82c-23.82,0-33-21.92-33-44.2s9.18-44.21,33-44.21,33,21.93,33,44.21S4312.06,670.75,4288.24,670.75Z"/><polygon class="cls-2" points="3905.21 563.67 3999.19 563.67 3999.19 586.08 3931.36 586.08 3931.36 613.97 3994.62 613.97 3994.62 635.83 3931.36 635.83 3931.36 667.01 3999.19 667.01 3999.19 689.42 3905.21 689.42 3905.21 563.67"/><path class="cls-2" d="M4010.4,689.43h26.14V651.7h23.69c32,0,53.5-15.74,53.5-44s-21.5-44-53.5-44H4010.4Zm49.83-60.14h-23.69V586.08h23.69c16.43,0,27.36,7.16,27.36,21.61S4076.66,629.29,4060.23,629.29Z"/><path class="cls-2" d="M4384.13,563.67h-26.86V689.43h25.62V638.48c0-13.92-.51-26.31-1-37.23,3,6.29,12.19,25.21,16.45,32.31l33.35,55.87h26.83V563.67h-25.61v49.67c0,13.93.5,27.58,1,38.51-3-6.29-12.19-25.21-16.45-32.32Z"/><path class="cls-2" d="M4143.42,647.81c0,16.91,14.06,23.49,29,23.49,9.78,0,25.62-2.85,25.62-15.83,0-13.7-19.38-16.29-38.06-21.27-19.6-5.18-38.45-12.54-38.45-35.84,0-26,24.55-38.43,47.5-38.43,26.51,0,50.88,11.57,50.88,40.92h-26.15c-.89-15.29-12.62-19.21-26-19.21-8.9,0-20.11,3.73-20.11,14.41,0,9.78,6.39,11.3,38.24,19.49,9.25,2.31,38.26,7.9,38.26,36.72,0,23.31-18.31,40.74-52.84,40.74-28.1,0-54.43-13.87-54.07-45.19Z"/><path class="cls-2" d="M5417.29,170.12c0,43-30.52,74.92-73.61,74.92-43.93,0-73.76-30.51-73.76-74.89,0-42,29.42-74.95,73.76-74.95C5386.77,95.2,5417.29,127.08,5417.29,170.12Zm-38.05,0c0-25.17-9.73-47.49-35.54-47.49s-35.76,22.32-35.76,47.49,9.94,47.51,35.76,47.51S5379.24,195.3,5379.24,170.13Z"/><path class="cls-2" d="M5158.24,156.81c-1.78-19.47-8.94-35.13-20.89-45.74-11.52-10.24-27-15.77-46.08-15.77-14.08,0-31.9,4.85-45,15.63-15.64,12.87-27.74,33-27.74,60.08,0,23.35,7.56,42.16,21.22,54.9,13.36,12.47,32.26,19.28,55.7,19.28,18.86,0,41.65-7.12,51.42-13.16,3.42-2.11,4.49-3,3.61-6.48l-6.11-17.28c-.7-2.83-3.85-3.56-6.4-2.29a116.37,116.37,0,0,1-11.85,5.37c-8.45,3.12-17.19,5.25-25.51,5.25-17.52,0-27.48-4.76-35.11-13.55-4.85-5.58-7.69-12.65-8.57-20.82h96.68c3.52,0,5.09-2.44,5.09-6.55v-7C5158.68,165.33,5158.53,160,5158.24,156.81Zm-34.65-.58h-66.73a46,46,0,0,1,4.27-13.81c5.95-12,17.3-19.65,31.36-19.65,19.31,0,31.1,13.11,31.1,32.58Z"/><path class="cls-2" d="M5193,116c10.94-14.1,28-20.5,55.9-20.5a97,97,0,0,1,19.67,1.93c3.33.78,3.84,3.38,3.23,6.72l-3.32,16.29c-.77,3-1.6,3.91-4,3.91a19.24,19.24,0,0,1-2-.18c-2.29-.28-8.88-1-11.64-1-13.87,0-20.48,3.46-25.42,8.75-5.73,6.15-5.93,15.25-5.93,31.55v72.37c0,4.76-2.09,7.43-7.2,7.43h-22.09c-4.73,0-6.77-2.37-7.15-7.43v-71C5183.1,138.87,5184.61,126.77,5193,116Z"/><path class="cls-2" d="M4945.44,146c5-5.12,16.48-19.36,29.28-43.49,2.13-4.14,4.06-5.15,6.94-5.15h23.76c2.13,0,4.69,1,3.3,5.15-9.42,28-31,52.52-42.87,65.22,13,12.3,36,41.42,46.84,69.95,1,2.57.5,5.52-4.93,5.52h-28.38c-2.95,0-5.23-.29-7.21-5.14-7-17.54-18-35.93-30.59-48-13.7,14.54-24.15,32.48-31.18,48-1.72,3.81-3.44,5.14-7.19,5.14h-26c-1.74,0-3.51-2.05-2.37-5.17,7.74-21.24,23.16-47.67,45.22-67.54-17.31-20.95-34-46.48-40.58-68-1-3.24.74-5.15,3.14-5.15h30.57c3.3,0,5,1.35,6.67,5.15C4927.35,120.05,4937.62,136.75,4945.44,146Z"/><path class="cls-2" d="M5492.6,146c4.95-5.12,16.47-19.36,29.27-43.49,2.13-4.14,4.06-5.15,6.95-5.15h23.75c2.13,0,4.7,1,3.31,5.15-9.42,28-31,52.52-42.87,65.22,13,12.3,36,41.42,46.83,69.95,1,2.57.49,5.52-4.93,5.52h-28.38c-2.94,0-5.22-.29-7.21-5.14-7-17.54-18-35.93-30.59-48-13.71,14.54-24.15,32.48-31.19,48-1.71,3.81-3.43,5.14-7.18,5.14h-26c-1.73,0-3.51-2.05-2.37-5.17,7.74-21.24,23.16-47.67,45.22-67.54-17.32-20.95-34-46.48-40.59-68-1-3.24.75-5.15,3.14-5.15h30.58c3.3,0,5,1.35,6.66,5.15C5474.5,120.05,5484.77,136.75,5492.6,146Z"/><path class="cls-1" d="M5590,626.17a11.39,11.39,0,1,0,11.36,11.36A11.39,11.39,0,0,0,5590,626.17Zm0,21.41a10,10,0,1,1,10-10.05,10,10,0,0,1-10,10.05Z"/><path class="cls-1" d="M5595.8,634.55a3.12,3.12,0,0,0-1.43-2.75,5.92,5.92,0,0,0-3.1-.62h-5.55v12.73h1.56V638h2.86l3.64,5.87h1.85l-3.85-5.87h0c2.26-.06,4-1,4-3.49Zm-6.14,2.26h-2.38v-4.5h3.63c1.58,0,3.31.24,3.31,2.21,0,2.59-2.77,2.29-4.56,2.29Z"/><path class="cls-1" d="M5523.17,573l23.3-24.87h0c1.35-1.82,2-3.11,2-4.2,0-1.83-1.57-2.56-6.51-2.56h-5.88v-15.7h63.62v15.7h-8.36c-9.65,0-11.45,1.46-24.91,18.44h0l-36.86,39.8v24.29h0c0,6.21,3.14,8.39,12.12,8.39h13.92v15.15h-89.11V632.27h13.92c9,0,12.12-2.18,12.12-8.39h0V599.59l-43.4-48h0c-7.18-8.4-6.19-10.23-26.16-10.23h0v-15.7h80.59v15.7h-5.74c-5.84,0-8.31,1.1-8.31,3.29,0,1.83,1.8,3.29,2.92,4.74h0l22,23.94h0c2.6,2.71,5.78,3.06,8.75-.34Z"/><path class="cls-1" d="M4982.5,525.65h19.44v43.81H4984c-1.59-8.76-7.07-12.16-12.07-16.76-9-8.29-28.55-15.19-45-15.19-21.2,0-39.09,6.58-39.09,16.25,0,26.84,121.25,5.48,121.25,56.24,0,26.47-26,41.26-72.62,41.26-16.14,0-40.58-5-55-12.67-4.52-2.61-6.44,2.47-7.29,8.83h-19.93V602.14h18c4,11.51,9.45,13.88,14.49,18.44,8.74,8,29.55,13.88,48.63,13.7,28.77-.29,38.67-6.58,38.67-15.71s-9.79-11.31-41.32-16.24h0L4906,598h0c-30.22-4.57-52.21-11.32-52.21-35.42,0-25,27.83-40.72,71.82-40.72,18.54,0,34.05,2.48,48.94,10.9,4.12,2.67,8,3,7.94-7.06Z"/><path class="cls-1" d="M5361.86,599l.38-48.69h0c0-6.39-3.32-8.58-12.82-8.58h-11.16V526.57h71v15.16H5400c-9.51,0-12.83,2.19-12.83,8.58h0v98l-27.8-.22-90-85.22v61.88h0c0,6.21,3.33,8.58,12.82,8.58h12.35v15h-73.73v-15H5233c9.5,0,12.83-2.37,12.83-8.58h0V550.31h0c0-6.39-3.33-8.58-12.83-8.58h-12.21V526.57h63.76L5361.86,599Z"/><path class="cls-1" d="M5124,520.89c-56.59,0-92,25-92,65.18,0,39.44,34.93,64.26,90.28,64.26,58.8,0,93-24.46,93-66.27,0-37.6-36.9-63.17-91.26-63.17Zm-1.29,113.56c-31.32,0-49.33-18.08-49.33-49.29,0-30.49,18.79-48.57,50.89-48.57,30.8,0,48.81,18.44,48.81,49.85,0,30.67-18.27,48-50.37,48Z"/><rect class="cls-2" x="159.95" y="632.62" width="150.84" height="134.72"/><path class="cls-3" d="M190,660.91V645.62H170.75V761.24H190V707.41s0-12,13.29-12,13.29,13.29,13.29,13.29v52.5h65.11V707.41s4.65-10.62,16-10.62V645.62S287,641,272.41,660.9c0,0-8.64-19.27-40.53-19.27S190,660.91,190,660.91Z"/><polygon class="cls-2" points="494.37 632.62 480.41 632.62 463.31 632.62 461.32 632.62 447.37 632.62 422.97 705.89 398.57 632.62 384.61 632.62 382.62 632.62 365.52 632.62 351.56 632.62 334.96 632.62 334.96 767.34 382.62 767.34 382.62 708.33 406.44 766.38 406.05 767.34 406.83 767.34 439.1 767.34 439.88 767.34 439.49 766.38 463.31 708.33 463.31 767.34 510.98 767.34 510.98 632.62 494.37 632.62"/><polygon class="cls-2" points="748.81 735.32 748.81 718.04 811.89 718.04 811.89 684.82 748.81 684.82 748.81 667.55 811.89 667.55 811.89 632.62 703.86 632.62 703.86 767.34 811.89 767.34 811.89 735.32 748.81 735.32"/><path class="cls-2" d="M634.3,767.34h49.17L645.15,632.62H564.64L526.33,767.34H575.5l4.76-16.74h49.28Zm-44.22-51.29L604.9,664l14.81,52.09Z"/><path class="cls-2" d="M869,633.47a20.81,20.81,0,0,1-41.62,0c0-11.37,9.26-20.26,21-20.26A20.27,20.27,0,0,1,869,633.47Zm-36.44,0c0,9,6.79,16.18,15.81,16.18,8.77.12,15.45-7.16,15.45-16.06s-6.68-16.31-15.69-16.31C839.36,617.28,832.57,624.58,832.57,633.47ZM845.05,644h-4.7V623.71a54.38,54.38,0,0,1,7.79-.62c3.82,0,5.55.62,6.92,1.61a5.11,5.11,0,0,1,2.09,4.32c0,2.48-1.85,4.08-4.2,4.82v.24c2,.63,3,2.22,3.59,4.95A17.92,17.92,0,0,0,858,644h-4.94c-.61-.74-1-2.47-1.61-4.94-.36-2.1-1.59-3.09-4.19-3.09h-2.22Zm.12-11.37h2.22c2.6,0,4.7-.86,4.7-3,0-1.84-1.36-3.08-4.32-3.08a11.4,11.4,0,0,0-2.6.25Z"/><path class="cls-2" d="M1288.6,733.39c7.28,24.12,29.84,40.56,64.09,40.56H1668c15,0,36,3.24,68.2-22.52,60.44-48.38,66.1-130.13,60-153-5.56-20.79-22.56-36-44.58-36h-333.7c-16.63,0-34.68-.84-66.06,26.85-26.44,23.33-40.92,50.83-57.32,90.24,3.57-20-11.69-39.67-11.69-39.67a46.43,46.43,0,0,0-31.48-80.54c-25.63,0-48.32,19.93-48.32,45.56a46.83,46.83,0,0,0,2.51,15.09s-16.89-10.69-22.22-13.36-14.67-4.89-19.13.9-4.88,16.44,0,24.46,20.91,31.57,36.47,40c0,0-1.79,20,10.67,27.55,0,0-.44,13.8,5.34,17.34,0,0,.9,6.7,4,8.46v14.23s-16.91,14.24-8.46,26.67,28.46,6.23,32.48,3.56c0,0,28.47,8,34.23-4.45s.89-21.33-5.76-25.78v-12l15.49,5.85Z"/><path class="cls-3" d="M1354.47,755.56c-45.36,0-56.24-29.48-38.24-74.7,13.79-34.68,26.23-58.28,48.92-78.28,26-22.91,40.9-22.22,54.68-22.22h323.72c18.25,0,36,12,36.92,29.79s-9.08,86.69-59.14,126.73c-26.69,21.35-44,18.68-56.51,18.68Z"/><path class="cls-2" d="M1354.47,760c-10.42,0-19.21-1.51-26.41-4.38-8.27-3.29-14.41-8.33-18.5-14.91s-6-14.41-6-23.5c0-11,2.92-23.76,8.58-38,7-17.58,13.65-32.37,21.44-45.29a143.66,143.66,0,0,1,28.66-34.68h0c26.49-23.37,42.17-23.35,56.42-23.33H1743.8a47,47,0,0,1,16.37,3c13.48,5.11,24,16.29,24.73,31v.25a84.4,84.4,0,0,1-.41,11c-.41,4.48-1.12,9.72-2.21,15.46-5.59,29.61-21.3,74.18-58.2,103.69-25.38,20.3-42.81,19.95-55.63,19.7-.84,0-1.6,0-3.64,0Zm-23.14-12.61c6.12,2.43,13.81,3.72,23.14,3.72h310.35l3.82.06c11.46.23,27.06.54,49.93-17.75,34.79-27.83,49.67-70.21,55-98.41,1-5.54,1.72-10.49,2.1-14.63a74.18,74.18,0,0,0,.37-9.8v-.23c-.54-10.8-8.62-19.16-19-23.09a37.84,37.84,0,0,0-6.49-1.82,38.7,38.7,0,0,0-6.76-.66v0h-324v0h-1.19c-12.66,0-26.59,0-50.56,21.11v0a135.05,135.05,0,0,0-26.92,32.59c-7.56,12.54-14,26.89-20.81,44-5.23,13.14-7.92,24.85-7.92,34.73,0,7.44,1.53,13.76,4.67,18.81s7.81,8.82,14.23,11.37Z"/><path class="cls-2" d="M1340.24,721.76h110.29c12.45,0,42.68-9.59,45.79-35.56,1.34-11.13-9.12-20-15.12-22.25,0,0,39.35-4.88,39.35-34.24,0-13.55-14.66-20.22-25.79-20.22h-98.27l-56.25,112.27Zm84.06-71.36,15.77-23.34h22.23c3.12,0,11.79.43,11.33,9.54s-16.22,13.8-21.55,13.8Zm-35.59,50.9,20.89-31.57h28c5.34,0,10.22,4,8,14s-18.47,17.56-23.35,17.56Z"/><polygon class="cls-2" points="1497.77 721.76 1550.24 721.76 1581.82 634.83 1549.57 634.83 1497.77 721.76 1497.77 721.76"/><path class="cls-2" d="M1576.33,632.37c8.93-1.17,15.42-8.07,14.47-15.45s-9-12.37-18-11.21-15.41,8.07-14.46,15.44,9,12.39,17.94,11.22Z"/><path class="cls-2" d="M1694.85,659.07h22.91l44.9-48.48h-46.23l-4.66,8.45s-8.25-12.23-37.58-12.23-72,16.67-82.28,54.92,16.94,61.83,52,61.83,56-10.24,73.36-29.81l-13.56-12.89s-19.13,29.36-54.9,20.88c-15.38-3.61-15.14-35.11,4.87-56s33.57-18.45,38.24-15.79,13.12,8,2.88,29.13Z"/><path class="cls-3" d="M1217.52,607.48a32,32,0,1,1,32,32,32,32,0,0,1-32-32Z"/><path class="cls-2" d="M1228,601.26a11.32,11.32,0,1,1,11.32,11.33A11.32,11.32,0,0,1,1228,601.26Z"/><path class="cls-3" d="M1173.46,624.07c3.07,13.74,18.78,27.92,30.71,36.89.9.66,2.87,3,2.45-1.12,0,0,0-2,1.55-.46s68.34,53,71.37,55.39a21.7,21.7,0,0,0,4.9,2.65c2.3,1.05,4,2.2,5.2,2.68,2.14.78,2.68.33,1.58-1.44-.53-.82-2.3-3.76-3-4.9a18.29,18.29,0,0,0-3.7-4.77c-2.25-1.94-62.56-54.6-62.56-54.6s-41.55-36.48-43.59-38.69c-1.54-1.66-3.1-3.11-3.65-.55-.4,1.77-1.56,7.43-1.26,8.92Z"/><path class="cls-2" d="M1270.75,700.2l3-.72c-1.1-2.79,1.34-4.65,1.6-6,.59-2.56,1.23-26.79-.77-31.36-1.63-3.7-13.68-18.45-15.21-18.66-1-.15-1.82,1.19-2.4,2.42a4,4,0,0,1-5.33-1c.13-.3.25-.61.39-.9.65-1.45-.58-1.55-1.36-1.45-1,.12-3.82,0-3.82,0-.88-.08-1.12.54-1,1.08-.52,1.17-2.16,3.69-5.88.86v0c-1.85-1.74-3.25-.83-4.75-.51a56.83,56.83,0,0,0-10.44,3c-3.11,1.47-9.47,33.26-9.91,36.39s.55,3.09,1.23,3.64a66.59,66.59,0,0,0,6.78,3.9c2.22,1.11,2.54,1.89,2.54,2.9v14.67c0,1.32-.5,5,2.36,4.87s3,1.66,3.1,2.45-.9,6.46,1.67,6.68,2.77.4,2.77,2.68v19.66c0,2.8,0,3.92-.78,4.34-5.79,3.33-11.35,10.7-8.12,12.34,4.57,2.33,15.14-7.33,18.58-7.22,1.81.06,2.67,1.33,5.24,1.46,1.53.05,2.65,1.42,6.65,3.21s7.3.86,7.45-2.56c.1-2.44-2-4.33-4.79-6s-3.11-3-3.11-3a95.71,95.71,0,0,1,.91-14c0-10.23,1.82-9.83,3.43-11.25.77-.65.23-4.08.23-5.54s-.34-3,1.88-3,4.45-.66,4.23-2.66c-.28-2.53-.23-6.67,2-4.5l1.7-6.29Zm-14.45-52.76-.11.29c-.44,1.15-2.44,6-3.66,6s-2.68-5-2.23-5.82a17.42,17.42,0,0,0,.83-1.87,4.81,4.81,0,0,0,5.17,1.36Zm-9.82-2.61a9.25,9.25,0,0,1,1.16,3.34c-.58,5.54-2.57,6-3.23,4.4a38.57,38.57,0,0,0-2.78-5.8,3.79,3.79,0,0,0,4.85-1.94Z"/><path class="cls-3" d="M1218.78,686.15c1.55,1.45,4.15,1.8,6.18,2.49s1.78-3.81,1.78-4.56c0-1.9-3-3.24-2.67-5.12a68.82,68.82,0,0,1,4-13c.07-.31.53-1,.92-1s.5.27.52,1.33c-.82,14.57-1.7,27.24-1.7,42.09,0,4.67,4.12,3.64,5.8,3.64,9.4.16,18.77.14,28.74-.58,1.62-.11,2.29-2.32,2.38-3.41.33-7.08-1.1-14.27-.68-21.67.27-4.59-.55-14.33,1.54-14.33s-1.41,21.56,2,26.56c8.45-2.33,6.57-20.54,5.79-32.14-.32-4.77-9.58-15.87-13.78-19.44-1.7,3-3.71,6.46-5.58,9.44-1.44,2.35-3.65,6.56-5.55,6.56-1.55,0-5.2-7.55-6.92-11.76-.77-1.94-2.58-5.51-4.41-5.25-3.78.55-11.58,1.79-12.44,4.79-3.31,11.09-6,20.92-7.46,32.64-.26,2.09.51,1.84,1.49,2.78Z"/><path class="cls-2" d="M1250.53,713.32c2,0,4.1.59,5.88.66,3.07.09,2.23,3.12,2.33,4.68s-1.64,2.22-3.33,2.22-3.32.11-4.66,0-3.11-.56-3.11-2.45c0-1.47,0-1.95,0-2.39-.12-1.44.66-2.72,2.89-2.72Z"/><path class="cls-2" d="M1236.65,714c1.1-.08,4.2,0,5.21,0a1.86,1.86,0,0,1,1.88,2.11c0,1.47.67,4.72-4,4.72-2.54,0-5.5-.49-6.06-1s-.47-2.19-.32-3.44c.23-2.05,1.88-2.25,3.24-2.34Z"/><path class="cls-2" d="M1248.42,723.1c1.23-.74,3.61-.39,4.83-.45s2.48,1,2.39,4.89a47.84,47.84,0,0,1-.56,6.11c-.09,1.22-1,2.22-2.87,2.36a13.94,13.94,0,0,1-4.23-.24c-.79-.21-1.25-1-1.35-3.23a66.09,66.09,0,0,1,.24-7.78c.1-.9.42-1,1.55-1.66Z"/><path class="cls-2" d="M1238.2,722.76a40.09,40.09,0,0,1,5.12-.11c1.32.23,2,1,1.88,4.89s-.19,5.1-.29,6.34-1.27,2-3.15,2.13a10.94,10.94,0,0,1-3.79-.24c-.78-.21-1.23-1-1.32-3.23a75.73,75.73,0,0,1,.19-7.78c.12-.9-.1-2,1.36-2Z"/><path class="cls-2" d="M1250.23,727.54a3.81,3.81,0,0,0-.74,1.57c-.06,1.48.78,2.11,1.75,2.11s1.47-.86,1.74-2.11a1.81,1.81,0,0,0-1.74-2.12,1,1,0,0,0-1,.55Z"/><path class="cls-2" d="M1240.25,727.8c-.08,0-.55,0-.65,1.63a1.87,1.87,0,0,0,1.58,2.21c.52.05,1.55-1,1.55-2.27s-.2-2.17-1.23-2.17c-.45,0-1.07.6-1.25.6Z"/><path class="cls-2" d="M1251.84,747.12c.72,0,2.46-1.19,2.46-1.91l.19-4.82a2.12,2.12,0,0,0-2.12-2.19l-4.5.14c-.72,0-1.57,1.95-1.57,2.67v3.75c0,1.27,2.29,2.36,3,2.36Z"/><path class="cls-2" d="M1243.23,747a1.28,1.28,0,0,0,1.28-1.29v-6a1.28,1.28,0,0,0-1.28-1.26h-4c-2.12-.2-2,1.78-2,2.48l.12,4.75c0,1.25,2.08,1.47,2.78,1.47l3.16-.21Z"/><path class="cls-3" d="M1257.1,752.12c-.89-.37-2,0-2.47-.69s-.28-2.27-1.15-2.66c-1.85-.79-6.16-.9-6.33,1.13-.35,3.82,2.83,2.93,5.43,4.33,3.36,1.78,6.61,4.87,10,2.56.78-1.44-2.24-3.57-3.79-3.57a1.7,1.7,0,0,1-1.64-1.1Z"/><path class="cls-3" d="M1236.52,750.35c.35-1.23,1.1-1.68,2.55-1.58s2.53-.06,3.23,0c2.29.18,2.11,3.61.43,4.45-2.5,1.26-2.61.62-3.71,1.29-1.92,1.16-2.28,2.42-4,3.46s-5.77,2.7-6.67,1.92.13-3.73,1.91-4.94a7.34,7.34,0,0,1,3.33-1.27c.54-.24,1.32-1.56,1.77-1.56s1-1.41,1.11-1.77Z"/><path class="cls-3" d="M1203.39,657.69a1.13,1.13,0,0,0,1.33-.17l.31-.46a.71.71,0,0,0,0-1.07l-19.53-18.49c-.3-.28-1.15.13-1.45.45l.35-.42a1.35,1.35,0,0,0-.22,2l19.22,18.2Z"/><path class="cls-2" d="M1811.23,609.55c-9.09,0-17.2-6.29-17.2-17.1s8.11-17.1,17.2-17.1,17.15,6.29,17.15,17.1-8.1,17.1-17.15,17.1Zm0-30.22c-6.78,0-12.26,5.24-12.26,13.12s5.48,13.16,12.26,13.12v0c6.61,0,12.21-5.28,12.21-13.16s-5.6-13.12-12.21-13.12Zm-2.85,22.3h-3.93v-18.4h6.87c4.75,0,7.56,1.34,7.56,5.55,0,3.4-2,4.62-4.43,4.81l4.69,8h-4.66l-4.24-7.73h-1.86v7.73Zm3.49-10.85c1.76,0,2.8-.36,2.8-2.4s-2-2-3.52-2h-2.77v4.44Z"/><path class="cls-2" d="M2352.64,660.13l-30.76-108.75h-69.05v29.14c-9-17.47-30.73-27.94-61-27.94-35.61,0-67.35,16.71-69.05,56h45.56c1.45-12.11,10.17-18.16,22-18.16,9.93,0,19.86,4.1,19.86,15.26,0,16-16.71,17.42-30,17.42v29.82c12.1,0,31.48,1.69,31.48,18.9,0,9.93-7.75,19.86-22.52,19.86-15.74,0-24.22-9.47-24.22-25.19h-47.49c0,41.9,29.31,63,69,63,30.94,0,54.29-9.41,66.37-27.61v24h51.37V666.69c0-14.06-1.95-37.55-3.64-52.81h.49l31.73,111.92h39.73l31.73-111.92h.49a536.14,536.14,0,0,0-3.64,58.61V725.8h51.36V551.38h-69Zm-99.81-15.77A39.44,39.44,0,0,0,2237.58,634c7-3.46,12-8.15,15.25-13.94Z"/></svg>