<svg id="Capa_1" data-name="Capa 1" xmlns="http://www.w3.org/2000/svg" viewBox="0 0 5084.55 800"><defs><style>.cls-1{fill:#0059a2;}.cls-1,.cls-12,.cls-2,.cls-3,.cls-4,.cls-5,.cls-6,.cls-9{fill-rule:evenodd;}.cls-2{fill:#096cae;}.cls-3{fill:#109bd4;}.cls-4{fill:#e00513;}.cls-14,.cls-5{fill:#fff;}.cls-6{fill:#eb7880;}.cls-7{fill:#ed9e25;}.cls-8{fill:#0f0607;}.cls-9{fill:#033d7b;}.cls-10{fill:#164194;}.cls-11{fill:#d61726;}.cls-12,.cls-16{fill:#1d1d1b;}.cls-13{fill:#054f91;}.cls-15{fill:#fab31e;}.cls-17{fill:#dd1517;}</style></defs><path class="cls-1" d="M677.15,188c55.74-27.27,86.49-58.32,81.94-84-9.56-54-173.34-62.75-342.38-32.73C339.36,85,265.38,105.6,215.29,126a40.22,40.22,0,0,1,4.52,0c21.65.59,20.33,14.06,20.33,14.06l0,8.22H222.92V142.7c0-4-4.83-4.23-4.83-4.23-3.69,0-4.55,2.51-4.55,2.51-2,3.83,1.45,7.13,1.45,7.13,1.79,2,10.76,6.14,10.76,6.14a61.31,61.31,0,0,1,7.59,4c8.78,5.28,8,15.31,8,15.31v6.61c-1.06,16.36-23.63,15.9-23.63,15.9-23.63,0-23.11-15.51-23.11-15.51v-8.1H213v5.58a4.8,4.8,0,0,0,4.59,5,5.1,5.1,0,0,0,5.44-4.66c.68-4.72-4.52-7.69-4.52-7.69-5.15-2.64-13.73-7.26-13.73-7.26a22.55,22.55,0,0,1-5.94-5.28c-3-3.83-2.83-9.77-2.83-9.77v-5.15c0-7.12,1.91-9.17,1.91-9.17.09-.15.16-.3.25-.45-61.74,28.53-99.54,61.61-94.75,88.8,9.71,55.15,164.18,62.39,345.86,34.41,83.65-12.88,156.45-36.59,211.55-61.15-.39,0-.81,0-1.21,0,0,0-22.27,1.8-22.8-16.16V144.81S634,125.67,659,125.67c0,0,16.24-.53,20.53,9.11,0,0,2.12,2.58,1.55,13.23H663.77v-5.46s0-4.41-4.53-4.41c0,0-4.68.2-4.68,3.9v35.9a4.65,4.65,0,0,0,5.08,4.82s4.33-.1,4.33-5.16V167.21h-4.71v-9.66h22.22v20.39s-.06,4.29-1.84,6.8a23,23,0,0,1-2.49,3.27Zm-63.34,5.82H593.43l-18.18-40.09h-.76l1,40.09H558.42V128.27h21L597,168h.75l-1.24-39.78h17.32v65.57ZM506.65,177.55a5,5,0,0,0,5.27,5.28c5,0,4.77-5.42,4.77-5.42V128H535v50c0,18-22.83,17.75-22.83,17.75-26.27,0-24.35-18.61-24.35-18.61V128h18.75l.06,49.57Zm-57.6-29.27V142.7c0-4-4.82-4.23-4.82-4.23-3.7,0-4.55,2.51-4.55,2.51-2.05,3.83,1.45,7.13,1.45,7.13,1.78,2,10.76,6.14,10.76,6.14a62.11,62.11,0,0,1,7.59,4c8.78,5.28,8,15.31,8,15.31v6.61c-1,16.36-23.62,15.9-23.62,15.9-23.63,0-23.12-15.51-23.12-15.51v-8.1h18.39v5.58a4.8,4.8,0,0,0,4.59,5,5.1,5.1,0,0,0,5.44-4.66c.69-4.72-4.51-7.69-4.51-7.69-5.15-2.64-13.73-7.26-13.73-7.26a22.33,22.33,0,0,1-5.94-5.28c-3-3.83-2.84-9.77-2.84-9.77v-5.15c0-7.13,1.92-9.17,1.92-9.17C428.92,124.87,446,126,446,126c21.65.6,20.33,14.07,20.33,14.07l0,8.22Zm-90.56-20L364,164.14h1.35l5.78-35.89h28.55l1.84,65.57H384.37L384,144.43h-1.18l-8.94,49.38H355.89l-9.05-49.39h-1.35l-.2,49.41H328.22l1.44-65.58Zm-67,65.5-6.73-50.83h-1.5l-6.73,50.83H258.2l11.35-65.55h29l11.36,65.55Z"/><path class="cls-2" d="M1597.17,122.4c-33,0-50.53,18.5-51.21,42.47-4.74-26.08-27.25-43.12-52.89-43.12s-47.26,17-52,42.75c-.09-22.92-18-42.7-41.27-42.7a36.63,36.63,0,0,0-26,10.69V99.06H1349v74.46a70.56,70.56,0,0,1-.43,7.65c-1.51,15.47-11.92,23.1-23.26,23.1-11.78,0-22.41-5.56-22.73-23-.06-3-.14-4.27-.14-6.41V147h38.62V123.56h-38.62V99.06h-25.15v65.56A53.1,53.1,0,0,0,1184,141.41v-19h-2.76c-32.4,0-49.91,17.85-51.16,41.21-4.76-23.67-24.34-41.21-49.07-41.21-13,0-23.07,4.7-31,12.61V98.88h-24.28v62.8c0,4.63.14,9,.19,13.18.35,29,20.68,52.89,52.17,52.89,27.17,0,47-17.68,51.88-41.25v38.77h24.88v-48.4c0-2.2.13-4.65.2-6.91.46-14.75,10.12-23.53,25.47-23.79a53.09,53.09,0,1,0,96.76,38.93v.07c0,25.49,20.47,42.88,45.13,42.88,10.39,0,19.58-4.46,26.58-11.74v8.94h24.81V172.58c0-1.25.06-2.26.09-3.23.63-16.89,10.53-24.25,21.41-24.25s20.12,7.38,20.49,24.17c.09,1.46.11,2.43.11,4.07v51.92h25.14v-39.4c4.73,25.44,26.29,41.86,52,41.86,29.17,0,45.65-18.67,50.07-38.19h-24.33c-2.12,6.94-10.76,17.6-25.76,17.6-13.52,0-25-9.24-28-24.32h80.82v42.45h24.89v-48.4c0-2.2.12-4.65.2-6.91.47-15,10.4-23.82,26.16-23.82h2.75V122.4Zm-519.05,81.46a29,29,0,1,1,29-29,28.66,28.66,0,0,1-29,29Zm147.09,0a29,29,0,1,1,29-29,28.65,28.65,0,0,1-29,29Zm241-40.65c4.09-12.67,14.64-20.5,26.88-20.5,15.74,0,25.17,12.62,27,20.5Z"/><path class="cls-3" d="M2110.29,124.83h-20.1L2062,202.12h20.11l28.16-77.29Zm-76.44,165c-1.24,0-2.49,0-3.74-.06l25.82-71h35.51c6.25,0,13.1-4.79,15.23-10.65l28-76.93c4.59-12.6-2.62-22.89-16-22.89h-49.28L2028,221.93h0l-23.45,64.41a126.34,126.34,0,0,1-4.77-244.53l-24.19,66.49h0l-40.22,110.47h26.78l34.2-93.87h20.12l-34.21,93.87H2009l31.87-87.59c4.58-12.6-2.62-22.89-16-22.89h-22.5l25.84-71c1.88-.1,3.77-.14,5.66-.14a126.32,126.32,0,1,1,0,252.63Z"/><path class="cls-4" d="M2534.74,182.48c13.55.29,22.66-1.88,22.08,13-1.3,3-2.74,4.82-7.07,5.6l-15.38-.15.37-18.49ZM2550,152.53l-15.3-.06,0-18.42c6.91-.12,14.62-1.25,18.53,3.41,4.38,5.25,2.46,13.87-3.25,15.07Zm-60.4-18.92.16,68.7c-27.53.26-23.74,26.66-2.83,26.84s42.14-.09,63.14-.1c22.88,0,38.24,1.76,45.86-17.34,7.17-18,.57-37.07-13.58-44.17,7.23-15.58,15.55-27.24,2.62-46.42-12.79-19-27.38-17.11-44.72-17.11-29.91,0-78.76-8.92-70.45,18.72C2472.7,132.43,2479.78,132.65,2489.59,133.61Z"/><path class="cls-4" d="M2913.55,134.83a20.33,20.33,0,0,1,11.9,0c12.72,5.08,9.1,18.81,9.1,40.85,0,6.48,1.06,18.72-1.39,24.25-1.8,4.07-7.64,7.76-13.66,6.9-6,.86-11.85-2.83-13.65-6.9-2.45-5.53-1.39-17.77-1.39-24.25,0-22-3.63-35.77,9.09-40.85ZM2904,104c-31.35,8-58.19,37.79-48.67,79.18,7,30.51,39.18,58,78.78,48.58,30.55-7.27,57.24-39.15,48.24-79C2975.44,122.31,2943.37,94,2904,104Z"/><path class="cls-4" d="M2671.91,157.25l6.82,18.6-14.17-.06,7.35-18.54Zm14.41,42.91c1.72,1.87,1.92-3,1.18,3.56l-4.56,1.44c-8.64,5.66-6.1,17.83,1.86,22.35,6.07,3.44,25.58,2,33.53,2,10.76,0,23.86,1.8,27.65-7.95,7.13-18.31-15-18.92-15.75-19.36-4.3-2.57-24.51-67.71-26.87-74.61l-6.32-18.9c-2.56-6.52-.26-2.85-3.95-4.64h-36.81c-4.12,1.14-16.46,42.27-18.54,48.56-5.44,16.45-13.14,34.28-17.14,50.16-10.39.35-20.43,5.14-16.85,17.39,2.94,10,14.59,9.37,26.24,9.35,9.56,0,26,1.34,32.38-3.16,3.44-2.42,5.86-7.84,4.3-14.07-1.46-5.82-5-5.88-8.31-9.92l1.53-6.79,24.63-.34Z"/><path class="cls-4" d="M2815.08,104.64c-33.3,0-48.94,5.14-65.12,24.11-13.58,15.92-18.15,48.63-6.64,71,30.67,59.59,115,26,108.3-7.2-1.14-5.68-6-10.13-12.47-9.41-5.31.6-10,6.13-12.85,9.37-4.57,5.22-21.4,16.55-32.42,10-10-5.94-10.46-20.4-10.38-35.25.07-13.27,1.36-30.57,12.9-33.93,14.42-4.2,25.35,2.36,30,12.76,3.73,8.38,19.58,20.24,20.87-5.43.85-17,2.78-52.4-18.67-46.81a14.38,14.38,0,0,0-7.06,4.12C2818.59,101.19,2820.32,102.37,2815.08,104.64Z"/><path class="cls-4" d="M3033.74,127.87,3048.25,104l-6-.41-18.23,0-5.55.07C3020.39,109.1,3030.09,124.32,3033.74,127.87Z"/><path class="cls-4" d="M3000.21,127.87,3014.74,104l-6.15-.32h-18.23l-5.29.19C2986.8,108.53,2996.85,125.19,3000.21,127.87Z"/><path class="cls-4" d="M2409.88,127.77c3.31-2.75,12.93-19.3,15-23.81l-29.3-.37C2397.54,109.13,2406.62,123.31,2409.88,127.77Z"/><path class="cls-4" d="M2443.11,127.53c4.4-3.72,13.7-19.69,15.09-23.9H2429Z"/><polygon class="cls-5" points="2664.56 175.79 2678.73 175.85 2671.91 157.25 2664.56 175.79"/><path class="cls-6" d="M2682.94,205.16l4.56-1.44c.74-6.56.54-1.69-1.18-3.56C2684.54,205.2,2689.32,199.81,2682.94,205.16Z"/><path class="cls-7" d="M3438.39,80.69h145.27V88.9h8.21v24.73h-8.21v8.21H3438.39v-8.21h-8.21V88.9h8.21V80.69Zm134.42,23.37,7.36-13.51H3573l-3.41,7.27-3.41-7.27H3559l7.37,13.63V112h6.49v-7.92ZM3557.52,112v-5h-10v-3.36h8.17v-5h-8.17V95.55h9.65v-5H3541V112ZM3539,112v-5h-8.91V90.55h-6.48V112Zm-31.42-21.43h-6.08V112h6.21V105.2l-.24-4.88,7.06,11.66h6.08V90.55h-6.22v6.82l.25,4.88-7.06-11.7ZM3484,112l.74-2.83h6.46l.77,2.83h6.46l-7.09-21.43h-6.6L3477.62,112Zm6.08-7.29H3486l2-7.68,2.09,7.68Zm-28-8.51h5.83V112h6.48V96.18h5.83V90.55h-18.14v5.63Zm-2.7.59a8.37,8.37,0,0,0-.75-2.64A6.73,6.73,0,0,0,3457,92a7.36,7.36,0,0,0-2.55-1.45,10.93,10.93,0,0,0-3.58-.53,13.13,13.13,0,0,0-3.42.42,8.16,8.16,0,0,0-2.72,1.29,6,6,0,0,0-1.79,2.14,6.72,6.72,0,0,0-.64,3,6.4,6.4,0,0,0,.49,2.61,5.16,5.16,0,0,0,1.28,1.83,7.37,7.37,0,0,0,1.83,1.21,13.86,13.86,0,0,0,2.09.8c.72.21,1.41.4,2.09.57s1.28.34,1.82.52a4.31,4.31,0,0,1,1.29.67,1.25,1.25,0,0,1,.15,1.85,2.08,2.08,0,0,1-.94.53,4.61,4.61,0,0,1-1.42.19,3.54,3.54,0,0,1-1-.14,3.05,3.05,0,0,1-.88-.4,2.39,2.39,0,0,1-.69-.69,2.76,2.76,0,0,1-.38-1h-6.21a6.74,6.74,0,0,0,.69,2.76,7.2,7.2,0,0,0,1.78,2.28,8.63,8.63,0,0,0,2.74,1.56,10.76,10.76,0,0,0,3.56.58,14.57,14.57,0,0,0,3.74-.46,8.53,8.53,0,0,0,2.93-1.37,6.22,6.22,0,0,0,1.91-2.31,7.3,7.3,0,0,0,.68-3.24,6.09,6.09,0,0,0-.49-2.5,5.28,5.28,0,0,0-1.29-1.75,7.72,7.72,0,0,0-1.82-1.19,15,15,0,0,0-2.09-.79c-.72-.22-1.42-.41-2.09-.58s-1.28-.36-1.82-.54a4.31,4.31,0,0,1-1.29-.68,1.28,1.28,0,0,1-.49-1,1,1,0,0,1,.49-.9,3,3,0,0,1,1.57-.32,4.29,4.29,0,0,1,.9.09,2.63,2.63,0,0,1,.78.3,1.65,1.65,0,0,1,.6.55,2,2,0,0,1,.33.9Z"/><path class="cls-8" d="M3798.15,170.32h23.61v73.29h26.29V170.32h23.62V144.24h-73.52v26.08ZM3468,202.07a57.36,57.36,0,0,1,6.33.23,16.29,16.29,0,0,1,5,1.13,6.9,6.9,0,0,1,3.31,2.78,9.62,9.62,0,0,1,1.17,5.1,8.94,8.94,0,0,1-1.64,5.69,8.2,8.2,0,0,1-4.42,2.71,22.94,22.94,0,0,1-6.35.71H3458.9V202.07Zm1-34.64c1.54,0,3,0,4.4.13a11.87,11.87,0,0,1,3.73.9,5.53,5.53,0,0,1,2.58,2.35,10.24,10.24,0,0,1-.31,9.31,7.77,7.77,0,0,1-3.49,2.9,12.59,12.59,0,0,1-5.09,1H3458.9V167.43Zm3.89,76.18a69,69,0,0,0,15.5-1.56,32.67,32.67,0,0,0,11.9-5.09,22.61,22.61,0,0,0,7.63-9.24,33.6,33.6,0,0,0,2.7-14.06,29.44,29.44,0,0,0-1.69-10.07,21.19,21.19,0,0,0-4.9-8,18.35,18.35,0,0,0-8-4.74,28.24,28.24,0,0,0,7.83-8.51,25.46,25.46,0,0,0,2.62-6,25.86,25.86,0,0,0,1-7.13A25.1,25.1,0,0,0,3504.7,157a19.89,19.89,0,0,0-7.54-7.66,34.93,34.93,0,0,0-11.26-3.95,74.63,74.63,0,0,0-13.85-1.13h-41.87v99.37Zm85.86-77.7a12.24,12.24,0,0,1,6.38,1.4,14.17,14.17,0,0,1,4.73,4.19,24.07,24.07,0,0,1,3.21,6.23,40.45,40.45,0,0,1,1.82,7.55,57.17,57.17,0,0,1,.58,8.09,63.21,63.21,0,0,1-.91,11.39,32.15,32.15,0,0,1-2.89,9.06,15.41,15.41,0,0,1-5.12,6,13.23,13.23,0,0,1-7.57,2.16,12.81,12.81,0,0,1-6.73-1.75,14.68,14.68,0,0,1-4.71-4.64,26.32,26.32,0,0,1-2.94-6.63,45.66,45.66,0,0,1-1.55-7.7,68,68,0,0,1-.44-7.85,60.56,60.56,0,0,1,.48-7.68,41,41,0,0,1,1.63-7.41,24.09,24.09,0,0,1,3-6.32,14,14,0,0,1,4.6-4.4,12.61,12.61,0,0,1,6.45-1.65Zm.23-24.29a43.14,43.14,0,0,0-17.8,3.65,39.36,39.36,0,0,0-13.84,10.38,48.08,48.08,0,0,0-9,16.24,67.88,67.88,0,0,0-3.17,21.21,75.75,75.75,0,0,0,3.15,22.56,47.08,47.08,0,0,0,8.9,16.68,38,38,0,0,0,13.82,10.35,44.36,44.36,0,0,0,17.9,3.54,43.67,43.67,0,0,0,14.07-2.25,39.32,39.32,0,0,0,12.07-6.63,41.88,41.88,0,0,0,9.43-10.76,53.29,53.29,0,0,0,6.13-14.75,74.79,74.79,0,0,0,2.19-18.47,69.54,69.54,0,0,0-1.7-15.45,57.13,57.13,0,0,0-5.15-14.11,44.21,44.21,0,0,0-8.69-11.52,38.08,38.08,0,0,0-12.33-7.82,43.81,43.81,0,0,0-16-2.85Zm128.13,31.46a40.07,40.07,0,0,0-3.45-12.26,31.39,31.39,0,0,0-7.38-10,33.53,33.53,0,0,0-11.75-6.74,51.33,51.33,0,0,0-16.53-2.46,59.66,59.66,0,0,0-15.83,2,37.41,37.41,0,0,0-12.56,6,27.11,27.11,0,0,0-8.25,9.91,31.17,31.17,0,0,0-3,13.87,30.61,30.61,0,0,0,2.27,12.1,24.4,24.4,0,0,0,5.95,8.46,33.82,33.82,0,0,0,8.42,5.64,61.56,61.56,0,0,0,9.65,3.7q5,1.49,9.65,2.65c3.12.78,5.93,1.59,8.43,2.41a19.19,19.19,0,0,1,5.95,3.09A5.78,5.78,0,0,1,3661,216a5.67,5.67,0,0,1-1.56,4,9.73,9.73,0,0,1-4.32,2.48,22.17,22.17,0,0,1-6.56.85,16.59,16.59,0,0,1-4.45-.62,13.65,13.65,0,0,1-4.06-1.86,10.85,10.85,0,0,1-3.2-3.2,12.52,12.52,0,0,1-1.76-4.67h-28.7a31.61,31.61,0,0,0,3.2,12.77,33.52,33.52,0,0,0,8.25,10.58,38.89,38.89,0,0,0,12.64,7.24,49.08,49.08,0,0,0,16.42,2.67,66.67,66.67,0,0,0,17.3-2.11,39.78,39.78,0,0,0,13.54-6.35,29,29,0,0,0,8.81-10.7,34.56,34.56,0,0,0,3.15-15.07,28.13,28.13,0,0,0-2.26-11.57,23.79,23.79,0,0,0-6-8.12,35.21,35.21,0,0,0-8.42-5.49,70.32,70.32,0,0,0-9.66-3.71q-5-1.49-9.65-2.69c-3.11-.78-5.92-1.63-8.42-2.5a19.2,19.2,0,0,1-6-3.13,5.93,5.93,0,0,1-2.26-4.6,4.6,4.6,0,0,1,2.28-4.19c1.55-1,4-1.47,7.24-1.47a18.72,18.72,0,0,1,4.17.43,12.53,12.53,0,0,1,3.58,1.36,8,8,0,0,1,2.77,2.55,9.85,9.85,0,0,1,1.55,4.21Zm1.66-2.76h23.61v73.29h26.29V170.32h23.62V144.24h-73.52v26.08ZM3793,243.61V144.24h-25.77v99.37ZM3959,182.19q-1.15-12.8-6.5-21.87a35.6,35.6,0,0,0-14.79-13.85q-9.4-4.83-22.83-4.85a41.35,41.35,0,0,0-14,2.34,39.49,39.49,0,0,0-12,6.77,42.6,42.6,0,0,0-9.43,10.81,52.87,52.87,0,0,0-6.15,14.47,69.82,69.82,0,0,0-2.19,17.78,70.77,70.77,0,0,0,3.18,21.83,46.5,46.5,0,0,0,9.23,16.49,39.55,39.55,0,0,0,14.62,10.46,50.24,50.24,0,0,0,19.52,3.66,44.5,44.5,0,0,0,16-2.8,37.28,37.28,0,0,0,12.72-8.15,41.1,41.1,0,0,0,8.87-12.92,55.9,55.9,0,0,0,4.37-17.26H3932a28.41,28.41,0,0,1-2.26,8.61,14.57,14.57,0,0,1-4.79,6,13,13,0,0,1-7.7,2.25,16.1,16.1,0,0,1-8.88-2.28,14.47,14.47,0,0,1-5.26-6,29.16,29.16,0,0,1-2.51-8.65,66,66,0,0,1-.65-10.1,57.55,57.55,0,0,1,1.95-16c1.29-4.3,3.14-7.55,5.56-9.71a12.58,12.58,0,0,1,8.69-3.24c4.55,0,8.17,1.45,10.87,4.25s4.27,6.83,4.73,12Zm33.17,61.42V205.1h25.95v38.51h27.48V144.24h-27.48v33.54h-25.95V144.24H3964.7v99.37Z"/><path class="cls-9" d="M2571.54,523.18c-3.07-.77-6.34-1.35-9.62-2.12-18.08-3.46-53.48-8.27-91.19,3.27,0,0-26.94,8.08-30.4,21.36-3.27,13.47-.77,19.81,4,25.59s37.33,37.71,47.14,54.06,11.54,23.28,2.5,32.9c-9.24,9.62-32.9,24.82-75,13.08,0,0-33.86-10.2-59.25-32.13,0,0,9.23,21.74,11.35,32.32,0,0,53.87,16.74,79.07,17.71,25.4,1,61.57-6.55,78.69-31.75s.19-46-11.35-59.26c-11.54-13.47-26.74-26.93-32.9-37.13-6.16-10-9-20.2,5.58-24.82,14.62-4.81,46.18-6.16,58.3-1.92,11.93,4.42,11,12.5,3.46,24.82h25c6,0,9.81.19,9.81.19s12.7-10.39,11-20.59c-1.35-8.27-12.31-12.5-26.17-15.58Zm401.34,131.4c7.12-2.69,15.2-5.77,24.24-8.65,33.09-11,63.69-19.24,63.69-19.24,1.92-.2,8.85,3.46,12.12,5.77s11.16,6.92,11.16,6.92c-32.14,1.35-78.69,16.36-111.21,28.29-18.66,6.73-32.9,12.5-36.94,14.43-11.54,4.81-17.31,3.46-18.47,3.27a75.72,75.72,0,0,1-8.66-4.24c-4.61-2.5-10-5.57-13.08-8.08-6-4.61-2.12-16.16-2.12-16.16,1.93-7.12,7.89-16.93,15.2-27.13,15.78-21.93,37.33-45.59,37.33-45.59a148.38,148.38,0,0,1,26.74-11c5.77-1.54,9.43-2.31,9.43-2.31,35.4-7.69,44.83,0,46,1.54,1.35,1.35,5,6.35-22.12,30.78-10.39,9-22.32,16.36-33.29,22.13a251.55,251.55,0,0,1-33.67,14.43c-3.08,3.85-7.69,13.66-11.16,21.35-3.65,7.7,1.16,9.63,8.08,8.28,5-1.16,17.51-7.31,36.75-14.82Zm0-43.67a86,86,0,0,0,9.81-7.31c9.24-8.66,15-16.35,8.66-19.62,0,0-6.92-2.7-18.47,8.65l-.77.77c-11.93,11.93-21.55,26.74-20.2,28.09,1,1,11.74-4.23,21-10.58ZM2908.81,532c.77,0,5.39-.39,1,4.62-.39.38-.58.77-1,1.15-7.31,8.08-41.36,43.1-47.9,56.56,0,0-2.5,5.78,2.11,2.51,4.62-3.08,26.55-16,26.55-16s11.16-1.54,19.24-1.93a56.94,56.94,0,0,1,6.16.19c4.62.77,11.74,3.85,10.2,7.7A166.62,166.62,0,0,1,2908.81,613a217.66,217.66,0,0,1-32.32,34.82c-15.78,13.08-26,22.12-34,27.32-8.28,5.2-14.43,6.35-21.74,3.66a92,92,0,0,1-10.78-4.62c-10.19-4.81-19.24-10.2-24.24-12.51,0,0-3.85-2.31-1.92-5.77,1.92-3.66,8.65-15,9.62-18.08,0,0-16-1.54-53.49,29.62,0,0-4.42,5.78-10.2,4s-16.54-9.42-16.54-9.42-1.35-1.16,0-3.85c1.54-2.69,7.5-10.58,7.5-10.58s2.89-3.66-2.69-1.16c-5.77,2.31-20.4,10.78-31.17,20.59,0,0-5.58,5.77-13.08,3.85-7.32-1.93-17.51-7.31-17.51-7.31s-2.12-1,.19-5.58c2.5-4.62,24.63-40.6,39.83-56.57,0,0,2.31-2.69-1-4.23a41.67,41.67,0,0,1-5.77-3.46s-44.06,42.52-72.15,61.56c-19.43,13.28-32.7,22.51-45.79,22.32-5.77,0-11.54-1.92-17.89-5.77,0,0-9.43-4.81-8.66-13.85.58-8.08,6.35-30.4,26.55-53.49,3.27-3.65,7.12-7.5,11.36-11.54,29.62-26.75,63.87-23.48,74.84-19,10.77,4.23,13.66,17.12-9.24,27.32,0,0-5,3.85-24.62,4.81,0,0,13.27-13.47,14-19.82.77-6.15-6.54-6.35-16.35,1.35s-39.44,39.63-42.72,62.91c-3.46,23.28,24.05,3.08,24.05,3.08s31.94-22.7,52.34-41.56c20.39-18.46,25.2-23.47,25.2-24,.19-.58.77-.39,0-1.16,0,0-7.31-4-2.31-8.85s20.59-15.39,30-17.7c0,0,4.24-2.12,6.74.77,2.5,2.69.38,4.23-1,5.19-1.35.77-4.43,4.43,1.92,8.28,6,4,24.24,13.08,21.55,17.12-2.5,4-31.75,35.59-35.21,44.64,0,0,0,2.3,2.5.77,2.5-1.35,31.75-18.28,41.56-22.13,0,0,24.82-31.17,33.09-38.67,0,0,19.05,1.35,26.94,5.19,0,0,3.27,2.31-.39,6-3.85,3.46-26,25.78-35.78,41.56,0,0-4,6,.57,4.61,4.62-1.54,26.94-12.31,38.1-14.62a18.85,18.85,0,0,1,1.15-1.92c4-5.77,17.32-24.63,32.52-43.87,11-14,23.08-28.28,33.28-37.71,0,0,19.63-3.08,33.09-3.46Zm-66.37,115.82c3.07-3.08,6.35-6.73,9.81-10.58,14.81-18.09,19.43-24.44,17.12-29,0,0-9.43-1-26.93,13.85a28.86,28.86,0,0,0-4.43,4c-20.39,18.66-26.36,37.13-21.35,37.9,3.84.58,14.23-5,25.78-16.16Zm-32.52-107.74a31.41,31.41,0,0,1,8.85.19c10.58,2.31,15,12.51,7.7,22.51-4.43,6-10.78,7.7-16.55,8.08a32.52,32.52,0,0,1-9.62-.77c-5-1.15-16.16-11.35-6.54-22.32a23.23,23.23,0,0,1,16.16-7.69Z"/><path class="cls-9" d="M3034.45,656.1h-.77a11.27,11.27,0,0,0-4.43.77,11.39,11.39,0,0,0-3.65,2.5,11.74,11.74,0,0,0-2.5,3.85,11.31,11.31,0,0,0-1,4.42,9.25,9.25,0,0,0,1,4.43,11.08,11.08,0,0,0,2.5,3.65,9.43,9.43,0,0,0,3.65,2.5,12.2,12.2,0,0,0,4.43,1h.77a13,13,0,0,0,3.65-1,11.74,11.74,0,0,0,3.85-2.5,9.65,9.65,0,0,0,2.5-3.65,13.1,13.1,0,0,0,0-8.85,10.3,10.3,0,0,0-2.5-3.85,13.32,13.32,0,0,0-3.85-2.5,11.1,11.1,0,0,0-3.65-.77Zm0,10.77a16.86,16.86,0,0,0,2.5-.57,2.49,2.49,0,0,0,1-2.12,2.76,2.76,0,0,0-1-2.12,4.42,4.42,0,0,0-2.5-.57h-3.66v5.38h3.66Zm0-6.92a8.05,8.05,0,0,1,4.23,1,3.31,3.31,0,0,1,1.54,3.08,3.35,3.35,0,0,1-1,2.69,4.07,4.07,0,0,1-2.51,1.35L3040,675h-2.5l-3.08-6.54-.2-.19h-3.46V675h-2.12V660h5.78Zm0,20.58h-.77a11.1,11.1,0,0,1-5-1,12,12,0,0,1-4.23-2.89,12.58,12.58,0,0,1-3.65-9,11.06,11.06,0,0,1,1-5,10.45,10.45,0,0,1,2.88-4.23,12.1,12.1,0,0,1,4-2.89,14.44,14.44,0,0,1,5-1h.77a27.61,27.61,0,0,1,4.23,1,13.85,13.85,0,0,1,7.12,7.12,13.5,13.5,0,0,1,0,10,15.22,15.22,0,0,1-2.89,4,11.81,11.81,0,0,1-4.23,2.89,11.23,11.23,0,0,1-4.23,1Z"/><path class="cls-10" d="M3820.7,532.68c-33.54,0-52.91,25.14-52.91,59.6s19.37,59.6,52.91,59.6,52.92-25.15,52.92-59.6S3854.25,532.68,3820.7,532.68Zm0,99.14c-21.31,0-29.52-19.61-29.52-39.54s8.21-39.55,29.52-39.55,29.53,19.61,29.53,39.55S3842,631.82,3820.7,631.82Z"/><polygon class="cls-10" points="3478.01 536.02 3562.1 536.02 3562.1 556.07 3501.41 556.07 3501.41 581.02 3558 581.02 3558 600.58 3501.41 600.58 3501.41 628.48 3562.1 628.48 3562.1 648.53 3478.01 648.53 3478.01 536.02"/><path class="cls-10" d="M3572.12,648.53h23.39V614.78h21.19c28.63,0,47.87-14.08,47.87-39.38S3645.33,536,3616.7,536h-44.58Zm44.58-53.8h-21.19V556.07h21.19c14.7,0,24.48,6.4,24.48,19.33S3631.4,594.73,3616.7,594.73Z"/><path class="cls-10" d="M3906.49,536h-24V648.53h22.92V603c0-12.45-.45-23.53-.87-33.31,2.7,5.63,10.9,22.56,14.71,28.91l29.84,50h24V536h-22.92v44.44c0,12.46.45,24.68.87,34.45-2.71-5.63-10.9-22.55-14.72-28.91Z"/><path class="cls-10" d="M3691.13,611.3c0,15.13,12.58,21,26,21,8.75,0,22.92-2.54,22.92-14.16,0-12.26-17.34-14.57-34.05-19-17.54-4.63-34.4-11.22-34.4-32.06,0-23.24,22-34.38,42.5-34.38,23.71,0,45.51,10.35,45.51,36.61h-23.39c-.79-13.69-11.29-17.19-23.23-17.19-8,0-18,3.34-18,12.89,0,8.75,5.72,10.11,34.21,17.44,8.28,2.06,34.24,7.07,34.24,32.85,0,20.85-16.39,36.45-47.28,36.45-25.14,0-48.7-12.41-48.38-40.43Z"/><path class="cls-11" d="M4830.84,183.92c0,38.51-27.3,67-65.86,67-39.3,0-66-27.3-66-67,0-37.56,26.33-67.06,66-67.06C4803.54,116.89,4830.84,145.41,4830.84,183.92Zm-34,0c0-22.51-8.7-42.48-31.8-42.48s-32,20-32,42.48,8.9,42.51,32,42.51S4796.8,206.44,4796.8,183.92Z"/><path class="cls-11" d="M4599.07,172c-1.59-17.42-8-31.43-18.69-40.92-10.3-9.16-24.13-14.11-41.22-14.11-12.6,0-28.54,4.34-40.28,14-14,11.51-24.82,29.52-24.82,53.75,0,20.89,6.77,37.71,19,49.11,12,11.16,28.87,17.26,49.84,17.26,16.87,0,37.26-6.37,46-11.78,3.06-1.89,4-2.7,3.23-5.79l-5.46-15.47c-.63-2.53-3.45-3.18-5.73-2.05a105,105,0,0,1-10.6,4.81c-7.56,2.79-15.38,4.7-22.82,4.7-15.68,0-24.59-4.26-31.42-12.13a33.29,33.29,0,0,1-7.66-18.63h86.5c3.15,0,4.55-2.18,4.55-5.85v-6.24C4599.47,179.63,4599.33,174.86,4599.07,172Zm-31-.52h-59.71a41,41,0,0,1,3.82-12.35c5.33-10.74,15.48-17.59,28.06-17.59,17.27,0,27.83,11.74,27.83,29.15Z"/><path class="cls-11" d="M4630.17,135.46c9.79-12.62,25-18.35,50-18.35a87.16,87.16,0,0,1,17.6,1.73c3,.7,3.43,3,2.88,6l-3,14.57c-.69,2.73-1.44,3.5-3.58,3.5-.33,0-1-.06-1.74-.15-2.06-.25-8-.9-10.42-.9-12.41,0-18.33,3.1-22.74,7.83-5.13,5.5-5.31,13.64-5.31,28.23v64.74c0,4.26-1.87,6.65-6.44,6.65h-19.76c-4.24,0-6.06-2.12-6.4-6.65V179.11C4621.32,156,4622.67,145.13,4630.17,135.46Z"/><path class="cls-11" d="M4408.69,162.36c4.44-4.59,14.74-17.32,26.19-38.91,1.91-3.71,3.63-4.61,6.21-4.61h21.26c1.9,0,4.2.92,2.95,4.61-8.42,25-27.71,47-38.35,58.35,11.62,11,32.22,37.06,41.9,62.59.88,2.29.45,4.93-4.41,4.93h-25.39c-2.64,0-4.68-.26-6.45-4.6-6.3-15.69-16.13-32.15-27.37-43-12.26,13-21.6,29.06-27.9,43-1.53,3.41-3.07,4.6-6.42,4.6h-23.29c-1.55,0-3.14-1.83-2.12-4.62,6.93-19,20.73-42.65,40.46-60.43-15.48-18.75-30.42-41.59-36.31-60.82-.88-2.9.66-4.61,2.81-4.61h27.35c3,0,4.51,1.21,6,4.61C4392.5,139.12,4401.69,154.06,4408.69,162.36Z"/><path class="cls-11" d="M4898.22,162.36c4.43-4.59,14.74-17.32,26.19-38.91,1.9-3.71,3.63-4.61,6.21-4.61h21.25c1.91,0,4.21.92,3,4.61-8.42,25-27.72,47-38.35,58.35,11.61,11,32.21,37.06,41.9,62.59.87,2.29.44,4.93-4.42,4.93h-25.38c-2.64,0-4.68-.26-6.46-4.6-6.29-15.69-16.12-32.15-27.36-43-12.27,13-21.61,29.06-27.91,43-1.53,3.41-3.07,4.6-6.42,4.6h-23.28c-1.55,0-3.14-1.83-2.12-4.62,6.92-19,20.72-42.65,40.45-60.43-15.49-18.75-30.42-41.59-36.31-60.82-.88-2.9.67-4.61,2.81-4.61h27.36c2.95,0,4.5,1.21,6,4.61C4882,139.12,4891.22,154.06,4898.22,162.36Z"/><path class="cls-12" d="M4985.33,591.94a10.19,10.19,0,1,0,10.16,10.16,10.19,10.19,0,0,0-10.16-10.16Zm0,19.15a9,9,0,1,1,8.93-9,9,9,0,0,1-8.93,9Z"/><path class="cls-12" d="M4990.55,599.43a2.78,2.78,0,0,0-1.27-2.45,5.26,5.26,0,0,0-2.78-.56h-5v11.39h1.38v-5.25h2.57l3.25,5.25h1.66l-3.45-5.25h0c2-.06,3.6-.88,3.6-3.13Zm-5.49,2h-2.14v-4h3.26c1.41,0,3,.22,3,2,0,2.32-2.48,2.05-4.08,2.05Z"/><path class="cls-12" d="M4925.57,544.35l20.85-22.25h0c1.2-1.63,1.81-2.78,1.81-3.76,0-1.63-1.41-2.28-5.83-2.28h-5.26V502h56.92v14h-7.48c-8.64,0-10.24,1.3-22.29,16.49h0l-33,35.61v21.73h0c0,5.55,2.81,7.51,10.84,7.51h12.45V611h-79.72V597.4h12.45c8,0,10.84-2,10.84-7.51h0V568.16l-38.83-43h0c-6.42-7.51-5.53-9.14-23.4-9.14h0V502h72.1v14h-5.14c-5.22,0-7.43,1-7.43,2.94,0,1.63,1.61,2.94,2.61,4.24h0l19.65,21.41h0c2.33,2.43,5.17,2.74,7.83-.3Z"/><path class="cls-12" d="M4441.84,502h17.39v39.2h-16.06c-1.42-7.83-6.32-10.88-10.8-15-8.07-7.42-25.54-13.59-40.24-13.59-19,0-35,5.88-35,14.54,0,24,108.48,4.9,108.48,50.31,0,23.68-23.24,36.91-65,36.91-14.44,0-36.3-4.48-49.2-11.33-4.05-2.34-5.76,2.21-6.52,7.9h-17.83V570.44h16.13c3.55,10.3,8.46,12.42,13,16.5,7.82,7.19,26.44,12.42,43.51,12.25,25.75-.25,34.6-5.88,34.6-14.05s-8.76-10.12-37-14.53h0l-24-3.92h0c-27-4.09-46.7-10.13-46.7-31.69,0-22.38,24.89-36.43,64.25-36.43,16.59,0,30.47,2.22,43.79,9.75,3.69,2.39,7.15,2.68,7.1-6.32Z"/><path class="cls-12" d="M4781.25,567.63l.34-43.56h0c0-5.72-3-7.68-11.47-7.68h-10V502.83h63.53v13.56h-8.28c-8.51,0-11.48,2-11.48,7.68h0v87.71l-24.87-.19-80.51-76.25v55.37h0c0,5.55,3,7.67,11.47,7.67H4721v13.4h-66v-13.4H4666c8.5,0,11.47-2.12,11.47-7.67h0V524.07h0c0-5.72-3-7.68-11.47-7.68h-10.93V502.83h57l69.14,64.8Z"/><path class="cls-12" d="M4568.47,497.75c-50.63,0-82.32,22.38-82.32,58.31,0,35.29,31.25,57.5,80.77,57.5,52.6,0,83.2-21.89,83.2-59.29,0-33.65-33-56.52-81.65-56.52Zm-1.16,101.6c-28,0-44.13-16.17-44.13-44.1,0-27.28,16.81-43.45,45.53-43.45,27.56,0,43.67,16.5,43.67,44.59,0,27.44-16.34,43-45.07,43Z"/><rect class="cls-13" x="127.19" y="597.71" width="134.95" height="120.53"/><path class="cls-14" d="M154.1,623V609.34H136.86V712.78H154.1V664.63s0-10.7,11.89-10.7,11.89,11.89,11.89,11.89v47h58.25V664.63s4.17-9.51,14.27-9.51V609.34s-9.51-4.16-22.59,13.67c0,0-7.73-17.24-36.26-17.24S154.1,623,154.1,623Z"/><polygon class="cls-13" points="426.39 597.71 413.91 597.71 398.61 597.71 396.83 597.71 384.34 597.71 362.51 663.27 340.68 597.71 328.2 597.71 326.42 597.71 311.11 597.71 298.63 597.71 283.77 597.71 283.77 718.25 326.42 718.25 326.42 665.44 347.73 717.39 347.38 718.25 348.08 718.25 376.94 718.25 377.65 718.25 377.3 717.39 398.61 665.44 398.61 718.25 441.25 718.25 441.25 597.71 426.39 597.71"/><polygon class="cls-13" points="654.03 689.59 654.03 674.14 710.48 674.14 710.48 644.41 654.03 644.41 654.03 628.96 710.48 628.96 710.48 597.71 613.82 597.71 613.82 718.25 710.48 718.25 710.48 689.59 654.03 689.59"/><path class="cls-13" d="M551.58,718.25h44L561.3,597.71h-72L455,718.25h44l4.26-15h44.09ZM512,672.35l13.25-46.6,13.25,46.6Z"/><path class="cls-13" d="M761.58,598.47a18.62,18.62,0,0,1-37.24,0c0-10.17,8.29-18.13,18.78-18.13A18.14,18.14,0,0,1,761.58,598.47Zm-32.61,0A14.12,14.12,0,0,0,743.12,613c7.85.11,13.82-6.41,13.82-14.37s-6-14.59-14-14.59C735.06,584,729,590.51,729,598.47Zm11.17,9.4h-4.2V589.74a47.52,47.52,0,0,1,7-.56c3.41,0,5,.56,6.19,1.44a4.59,4.59,0,0,1,1.87,3.87c0,2.21-1.66,3.65-3.76,4.31V599c1.77.56,2.66,2,3.21,4.42a16.33,16.33,0,0,0,1.32,4.43h-4.42c-.55-.67-.88-2.22-1.44-4.43-.32-1.87-1.43-2.76-3.75-2.76h-2Zm.11-10.17h2c2.32,0,4.2-.78,4.2-2.66,0-1.66-1.22-2.76-3.87-2.76a10.11,10.11,0,0,0-2.32.22Z"/><path class="cls-14" d="M1137,687.87c6.51,21.58,26.69,36.28,57.34,36.28h282.07c13.45,0,32.2,2.9,61-20.15,54.08-43.28,59.14-116.42,53.65-136.92-5-18.61-20.19-32.19-39.89-32.19H1252.61c-14.88,0-31-.75-59.09,24-23.66,20.88-36.62,45.48-51.29,80.75,3.19-17.92-10.46-35.5-10.46-35.5a41.54,41.54,0,0,0-28.16-72.06c-22.94,0-43.23,17.83-43.23,40.77a41.91,41.91,0,0,0,2.24,13.5s-15.11-9.57-19.88-12-13.12-4.37-17.11.81-4.37,14.71,0,21.89,18.7,28.24,32.62,35.81c0,0-1.6,17.89,9.55,24.65,0,0-.4,12.34,4.78,15.51,0,0,.8,6,3.58,7.56v12.74s-15.13,12.73-7.57,23.86,25.46,5.57,29.06,3.18c0,0,25.47,7.17,30.62-4s.8-19.09-5.15-23.07V682.63l13.86,5.24Z"/><path class="cls-15" d="M1195.91,707.7c-40.58,0-50.31-26.37-34.21-66.83,12.33-31,23.47-52.14,43.76-70,23.24-20.51,36.6-19.88,48.93-19.88H1544c16.33,0,32.24,10.72,33,26.64s-8.12,77.57-52.92,113.39c-23.88,19.1-39.41,16.71-50.55,16.71Z"/><path class="cls-16" d="M1195.91,711.68c-9.32,0-17.18-1.35-23.63-3.91-7.39-2.95-12.89-7.46-16.55-13.35s-5.39-12.89-5.39-21c0-9.8,2.61-21.26,7.67-34,6.26-15.73,12.22-29,19.18-40.52a128.82,128.82,0,0,1,25.65-31h0c23.7-20.91,37.74-20.89,50.48-20.87h290.92a42.3,42.3,0,0,1,14.64,2.72c12.06,4.57,21.47,14.57,22.13,27.71v.21h0a75.8,75.8,0,0,1-.36,9.84c-.37,4-1,8.7-2,13.84-5,26.49-19.07,66.36-52.08,92.76-22.71,18.17-38.3,17.86-49.77,17.63-.75,0-1.43,0-3.25,0ZM1175.2,700.4c5.48,2.18,12.36,3.33,20.71,3.33h277.67l3.41.06c10.26.2,24.21.47,44.67-15.89,31.13-24.9,44.45-62.82,49.22-88,.94-5,1.54-9.38,1.88-13.09a66.08,66.08,0,0,0,.33-8.77v-.21c-.48-9.66-7.71-17.13-17-20.65a34.17,34.17,0,0,0-5.82-1.63,33.34,33.34,0,0,0-6-.59h-290.9c-11.32,0-23.79,0-45.23,18.88v0A121,121,0,0,0,1184,603c-6.76,11.22-12.54,24.06-18.62,39.35-4.68,11.76-7.09,22.23-7.09,31.07,0,6.65,1.38,12.31,4.19,16.83a25.58,25.58,0,0,0,12.72,10.17Z"/><path class="cls-16" d="M1183.18,677.47h98.67c11.14,0,38.19-8.59,41-31.82,1.2-10-8.16-17.92-13.52-19.91,0,0,35.2-4.37,35.2-30.63,0-12.12-13.12-18.1-23.08-18.1H1233.5l-50.32,100.46Zm75.2-63.85,14.12-20.89h19.88c2.8,0,10.55.39,10.14,8.54s-14.51,12.35-19.28,12.35Zm-31.84,45.54,18.69-28.25h25.07c4.78,0,9.15,3.6,7.18,12.54s-16.52,15.71-20.89,15.71Z"/><polygon class="cls-16" points="1324.12 677.47 1371.07 677.47 1399.32 599.69 1370.46 599.69 1324.12 677.47 1324.12 677.47"/><path class="cls-16" d="M1394.4,597.49c8-1,13.8-7.23,12.95-13.83s-8.06-11.07-16.06-10-13.78,7.22-12.93,13.82,8,11.08,16,10Z"/><path class="cls-16" d="M1500.44,621.37h20.5L1561.11,578h-41.36l-4.17,7.56s-7.38-10.95-33.62-10.95-64.44,14.93-73.62,49.14,15.16,55.32,46.57,55.32,50.13-9.16,65.63-26.67l-12.12-11.53s-17.12,26.27-49.13,18.68c-13.75-3.23-13.54-31.41,4.36-50.11s30-16.51,34.22-14.13,11.73,7.17,2.57,26.06Z"/><path class="cls-16" d="M1073.38,575.22A28.65,28.65,0,1,1,1102,603.86a28.64,28.64,0,0,1-28.64-28.64Z"/><path class="cls-14" d="M1082.74,569.66a10.13,10.13,0,1,1,10.13,10.13,10.13,10.13,0,0,1-10.13-10.13Z"/><path class="cls-16" d="M1034,590.06c2.74,12.29,16.8,25,27.47,33,.8.59,2.57,2.67,2.19-1,0,0,0-1.8,1.39-.41s61.14,47.47,63.85,49.56a19.85,19.85,0,0,0,4.38,2.37c2.06.94,3.58,2,4.66,2.39,1.91.71,2.4.3,1.41-1.28-.47-.74-2.06-3.36-2.68-4.39a16.49,16.49,0,0,0-3.31-4.27c-2-1.73-56-48.84-56-48.84s-37.17-32.64-39-34.62c-1.38-1.48-2.78-2.78-3.27-.49-.35,1.58-1.39,6.65-1.12,8Z"/><path class="cls-16" d="M1121,658.17l2.64-.65c-1-2.49,1.19-4.15,1.43-5.32.53-2.29,1.1-24-.69-28.05-1.46-3.31-12.24-16.51-13.61-16.7-.88-.13-1.62,1.06-2.14,2.17a3.54,3.54,0,0,1-4.78-.87c.12-.27.23-.54.36-.8.58-1.3-.52-1.4-1.22-1.3a34.18,34.18,0,0,1-3.42,0c-.79-.08-1,.48-.87,1-.46,1-1.93,3.3-5.26.77v0c-1.65-1.56-2.9-.74-4.25-.45a50.79,50.79,0,0,0-9.34,2.66c-2.78,1.32-8.47,29.76-8.86,32.56s.49,2.77,1.1,3.25a56,56,0,0,0,6.06,3.49c2,1,2.27,1.7,2.27,2.6v13.12c0,1.18-.44,4.48,2.12,4.36s2.66,1.49,2.77,2.2-.81,5.77,1.49,6,2.48.36,2.48,2.4v17.59c0,2.5,0,3.5-.69,3.88-5.18,3-10.16,9.57-7.27,11,4.09,2.08,13.54-6.56,16.62-6.46,1.62,0,2.39,1.19,4.69,1.31,1.37,0,2.38,1.27,5.95,2.87s6.53.77,6.67-2.29c.09-2.18-1.81-3.88-4.29-5.37s-2.78-2.7-2.78-2.7a86.12,86.12,0,0,1,.81-12.52c0-9.15,1.63-8.8,3.07-10.06.69-.59.21-3.66.21-5s-.3-2.68,1.68-2.68,4-.6,3.78-2.39c-.24-2.26-.2-6,1.76-4l1.52-5.63ZM1108.08,611l-.1.26c-.39,1-2.18,5.4-3.27,5.4s-2.4-4.52-2-5.2a17.55,17.55,0,0,0,.75-1.68,4.27,4.27,0,0,0,4.62,1.22Zm-8.78-2.34a8.24,8.24,0,0,1,1,3c-.52,5-2.3,5.39-2.89,3.94a34.75,34.75,0,0,0-2.48-5.19,3.39,3.39,0,0,0,4.34-1.74Z"/><path class="cls-15" d="M1074.51,645.6c1.39,1.3,3.72,1.61,5.53,2.23s1.59-3.41,1.59-4.08c0-1.7-2.66-2.9-2.39-4.58a61.25,61.25,0,0,1,3.61-11.65c.06-.28.48-.93.83-.93s.44.24.46,1.19c-.73,13-1.52,24.37-1.52,37.66,0,4.17,3.68,3.26,5.18,3.26,8.41.14,16.8.12,25.72-.53,1.45-.09,2-2.07,2.13-3,.3-6.33-1-12.76-.61-19.39.24-4.1-.5-12.81,1.38-12.81s-1.26,19.28,1.81,23.76c7.55-2.09,5.87-18.38,5.18-28.76-.29-4.26-8.58-14.2-12.33-17.39-1.52,2.7-3.32,5.78-5,8.45-1.29,2.1-3.27,5.86-5,5.86-1.39,0-4.66-6.75-6.19-10.52-.69-1.73-2.31-4.93-4-4.69-3.38.49-10.35,1.6-11.13,4.28-3,9.92-5.39,18.72-6.67,29.21-.24,1.87.46,1.64,1.33,2.48Z"/><path class="cls-15" d="M1102.92,669.91c1.79,0,3.67.53,5.26.59,2.75.09,2,2.79,2.09,4.19s-1.48,2-3,2-3,.09-4.17,0-2.79-.51-2.79-2.2c0-1.31,0-1.74,0-2.14-.11-1.28.59-2.43,2.59-2.43Z"/><path class="cls-15" d="M1090.5,670.5c1-.07,3.76,0,4.66,0a1.66,1.66,0,0,1,1.68,1.89c0,1.31.6,4.23-3.53,4.23-2.28,0-4.92-.45-5.42-1s-.42-1.95-.29-3.08c.2-1.83,1.68-2,2.9-2.09Z"/><path class="cls-14" d="M1101,678.66c1.1-.66,3.23-.35,4.32-.4s2.22.9,2.14,4.37a43.14,43.14,0,0,1-.5,5.47c-.08,1.09-.9,2-2.57,2.11a12.27,12.27,0,0,1-3.79-.22c-.7-.18-1.11-.89-1.2-2.88a59.79,59.79,0,0,1,.21-7c.09-.81.38-.89,1.39-1.49Z"/><path class="cls-14" d="M1091.89,678.36a35.13,35.13,0,0,1,4.57-.1c1.19.2,1.79.9,1.68,4.37s-.16,4.57-.25,5.68-1.14,1.78-2.82,1.9a9.58,9.58,0,0,1-3.39-.22c-.7-.18-1.1-.89-1.18-2.88a66.46,66.46,0,0,1,.17-7c.11-.81-.09-1.79,1.22-1.79Z"/><path class="cls-16" d="M1102.65,682.63A3.4,3.4,0,0,0,1102,684c0,1.32.7,1.88,1.57,1.88s1.31-.76,1.55-1.88a1.62,1.62,0,0,0-1.55-1.9.87.87,0,0,0-.91.49Z"/><path class="cls-16" d="M1093.72,682.86c-.07,0-.49,0-.58,1.46a1.68,1.68,0,0,0,1.42,2c.46.05,1.38-.93,1.38-2s-.18-1.94-1.1-1.94c-.4,0-1,.53-1.12.53Z"/><path class="cls-15" d="M1104.09,700.15c.64,0,2.2-1.07,2.2-1.71l.17-4.31a1.89,1.89,0,0,0-1.9-2l-4,.12c-.65,0-1.41,1.75-1.41,2.39V698c0,1.14,2,2.11,2.68,2.11Z"/><path class="cls-15" d="M1096.38,700.07a1.15,1.15,0,0,0,1.15-1.15V693.6a1.15,1.15,0,0,0-1.15-1.13h-3.62c-1.89-.19-1.8,1.59-1.8,2.22l.12,4.25c0,1.11,1.85,1.31,2.48,1.31l2.82-.19Z"/><path class="cls-15" d="M1108.79,704.62c-.79-.33-1.8,0-2.2-.61s-.25-2-1-2.39c-1.66-.7-5.51-.8-5.67,1-.31,3.42,2.53,2.62,4.86,3.87,3,1.59,5.92,4.36,8.9,2.3.7-1.3-2-3.2-3.38-3.2a1.55,1.55,0,0,1-1.48-1Z"/><path class="cls-15" d="M1090.38,703c.32-1.1,1-1.5,2.29-1.42s2.26,0,2.88,0c2.06.16,1.89,3.23.39,4-2.23,1.13-2.33.55-3.32,1.15-1.72,1-2,2.17-3.54,3.1s-5.16,2.41-6,1.71.11-3.33,1.71-4.42a6.69,6.69,0,0,1,3-1.13c.49-.22,1.18-1.4,1.59-1.4s.9-1.26,1-1.58Z"/><path class="cls-14" d="M1060.74,620.14a1,1,0,0,0,1.19-.16l.28-.41a.63.63,0,0,0,0-1l-17.48-16.54c-.26-.26-1,.11-1.29.4l.32-.38a1.21,1.21,0,0,0-.21,1.76l17.2,16.28Z"/><path class="cls-16" d="M1604.56,577.07c-8.13,0-15.38-5.63-15.38-15.3s7.25-15.3,15.38-15.3,15.35,5.63,15.35,15.3-7.25,15.3-15.35,15.3Zm0-27c-6.06,0-11,4.69-11,11.74s4.9,11.78,11,11.74v0c5.92,0,10.93-4.73,10.93-11.78s-5-11.74-10.93-11.74ZM1602,570h-3.52V553.52h6.15c4.25,0,6.76,1.2,6.76,5,0,3-1.78,4.13-4,4.3l4.21,7.2h-4.18l-3.79-6.93H1602V570Zm3.12-9.71c1.57,0,2.51-.33,2.51-2.15s-1.83-1.82-3.16-1.82H1602v4Z"/><path class="cls-17" d="M2089,622.32,2061.44,525h-61.78V551.1c-8.06-15.63-27.5-25-54.61-25-31.86,0-60.26,14.95-61.78,50.07H1924c1.29-10.84,9.1-16.25,19.72-16.25,8.89,0,17.77,3.67,17.77,13.65,0,14.29-15,15.59-26.87,15.59v26.68c10.83,0,28.17,1.51,28.17,16.9,0,8.89-6.94,17.77-20.16,17.77-14.08,0-21.67-8.47-21.67-22.54h-42.48c0,37.49,26.22,56.34,61.77,56.34,27.67,0,48.57-8.42,59.38-24.71v21.48h46V628.2c0-12.58-1.75-33.61-3.26-47.26h.44l28.39,100.14h35.54l28.39-100.14h.44a480,480,0,0,0-3.26,52.44v47.7h45.95V525h-61.76Zm-89.29-14.1a35.24,35.24,0,0,0-13.65-9.29,30.42,30.42,0,0,0,13.65-12.47Z"/></svg>