<svg id="Capa_1" data-name="Capa 1" xmlns="http://www.w3.org/2000/svg" viewBox="0 0 800 800"><defs><style>.cls-1{fill:#333;}</style></defs><path class="cls-1" d="M705.82,235.36H622.65L483.93,116.9a14.73,14.73,0,0,0-19.13,22.41l112.48,96.05H196.9l112.53-96.05A14.73,14.73,0,0,0,290.3,116.9L151.89,235c-.12.1-.2.22-.32.33H81.38a34.07,34.07,0,0,0-34,34.1v86.39a34.08,34.08,0,0,0,34,34.1h23.1C109.84,444,125.59,600.57,134,661.06c1.29,9.3,5.22,37.63,42.31,40.5,10.42.8,65,1.07,132.67,1.07,127.46,0,301.14-1,312.2-1l1,0c12.88-1,38.3-11.26,42.35-43.11,3-24,22.85-208.42,29.29-268.52h12a34.08,34.08,0,0,0,34-34.1V269.46A34.07,34.07,0,0,0,705.82,235.36ZM635.29,654.75c-1.81,14.31-11.76,17-15,17.41-143.15.8-418.65,1.82-441.69,0-12.88-1-14.08-5.63-15.4-15.17C155,598.08,139.7,446.42,134.09,390H664.2C657.46,452.73,638.22,631.77,635.29,654.75Zm75-298.9a4.58,4.58,0,0,1-4.51,4.63H81.38a4.57,4.57,0,0,1-4.51-4.63V269.46a4.58,4.58,0,0,1,4.51-4.64H705.82a4.59,4.59,0,0,1,4.51,4.64Z"/></svg>