<svg id="Capa_1" data-name="Capa 1" xmlns="http://www.w3.org/2000/svg" viewBox="0 0 800 800"><defs><style>.cls-1{fill:#fbeb00;}.cls-2{fill:#022e6d;}</style></defs><rect class="cls-1" width="800" height="800" rx="99.54"/><path class="cls-2" d="M621.47,277.54h-59l-98.4-84a10.45,10.45,0,0,0-13.58,15.9l79.79,68.13H260.47l79.83-68.13a10.45,10.45,0,1,0-13.58-15.9L228.54,277.3c-.08.07-.14.16-.22.24H178.53a24.17,24.17,0,0,0-24.1,24.18V363a24.17,24.17,0,0,0,24.1,24.18h16.39c3.8,38.34,15,149.41,20.9,192.31.92,6.61,3.71,26.7,30,28.73,7.39.57,46.13.76,94.1.76,90.42,0,213.62-.67,221.46-.71l.74,0c9.14-.7,27.17-8,30-30.58,2.16-17,16.21-147.84,20.78-190.48h8.51A24.17,24.17,0,0,0,645.57,363V301.72A24.17,24.17,0,0,0,621.47,277.54ZM571.45,575c-1.29,10.15-8.35,12-10.68,12.35-101.55.57-297,1.29-313.32,0-9.13-.7-10-4-10.92-10.75-5.79-41.81-16.63-149.39-20.61-189.45H592C587.17,431.73,573.52,558.73,571.45,575Zm53.22-212a3.26,3.26,0,0,1-3.2,3.29H178.53a3.26,3.26,0,0,1-3.2-3.29V301.72a3.25,3.25,0,0,1,3.2-3.28H621.47a3.25,3.25,0,0,1,3.2,3.28Z"/></svg>