<svg id="Capa_1" data-name="Capa 1" xmlns="http://www.w3.org/2000/svg" viewBox="0 0 800 800"><defs><style>.cls-1{fill:#002e6b;}</style></defs><path class="cls-1" d="M657,382.86a11.4,11.4,0,0,0-14.18,7.74c-5.9,20-23,44.41-42.76,62.64A48.29,48.29,0,0,0,553.19,416H441.33V382.41H493a11.42,11.42,0,0,0,9.89-5.7l44.93-77.43A166.89,166.89,0,0,0,403.46,48.63h-1.34A166.9,166.9,0,0,0,257.77,299.28l44.93,77.43a11.42,11.42,0,0,0,9.89,5.7h51.66V416H252.39A48.21,48.21,0,0,0,207,448.46c-32.16-24.26-52.21-61.87-52.21-99.81V334.52h23.88a11.43,11.43,0,1,0,0-22.86H95.57a11.43,11.43,0,0,0,0,22.86H131.9v14.13c0,49.3,28.29,97.94,72.5,125.71a48.21,48.21,0,0,0,48,45.28h139V560.3c-18.32,6.27-32.63,26.69-36.74,47H250.93a65.37,65.37,0,0,0-64.74,57.13A45.19,45.19,0,1,0,210,661.9a42.4,42.4,0,0,1,40.92-31.77H391.36v32.68a45.11,45.11,0,1,0,22.86,0V630.13H554.65a42.46,42.46,0,0,1,41.68,34.77A45.41,45.41,0,1,0,619,661.64a65.37,65.37,0,0,0-64.32-54.37H451c-4.11-20.28-18.42-40.7-36.74-47V519.64h139a48.28,48.28,0,0,0,46.75-36.74c25.55-18.57,55.14-52.88,64.84-85.85A11.42,11.42,0,0,0,657,382.86ZM225,706.27A22.25,22.25,0,1,1,202.73,684,22.27,22.27,0,0,1,225,706.27Zm200.06,0A22.25,22.25,0,1,1,402.79,684,22.27,22.27,0,0,1,425,706.27Zm211.42,0A22.25,22.25,0,1,1,614.21,684,22.27,22.27,0,0,1,636.46,706.27Zm-209.15-99h-49c4.17-13.14,14.38-26.12,24.52-26.12S423.14,594.13,427.31,607.27ZM277.55,287.81A144,144,0,0,1,402.12,71.49h1.34A144,144,0,0,1,528,287.81l-41.62,71.74H319.17Zm109.56,94.6h31.36V416H387.11Zm191.52,88.94a25.46,25.46,0,0,1-25.44,25.43H252.39A25.46,25.46,0,0,1,227,471.35v-7.09a25.47,25.47,0,0,1,25.44-25.44h300.8a25.47,25.47,0,0,1,25.44,25.44Z"/><path class="cls-1" d="M667.39,347.43c-4.12-4.23-11.89-4.23-16.12,0a11.51,11.51,0,0,0-2.51,3.78A11.42,11.42,0,0,0,659.28,367a11.81,11.81,0,0,0,4.45-.92,11,11,0,0,0,3.66-2.4,11.25,11.25,0,0,0,3.32-8.11,11.08,11.08,0,0,0-.81-4.34A13.54,13.54,0,0,0,667.39,347.43Z"/><path class="cls-1" d="M704.43,311.66H621.36a11.43,11.43,0,0,0,0,22.86h83.07a11.43,11.43,0,1,0,0-22.86Z"/></svg>