<svg id="Capa_1" data-name="Capa 1" xmlns="http://www.w3.org/2000/svg" viewBox="0 0 800 800"><defs><style>.cls-1{fill:#002e6b;}</style></defs><path class="cls-1" d="M400,780C201.23,780,39.53,618.24,39.53,419.48S201.23,59,400,59,760.47,220.72,760.47,419.48,598.76,780,400,780Zm0-690.27C218.15,89.69,70.2,237.63,70.2,419.48s148,329.8,329.79,329.8S729.8,601.33,729.8,419.48,581.84,89.69,400,89.69Z"/><path class="cls-1" d="M354.48,517.65a15.33,15.33,0,0,1-10.85-4.49l-75.87-75.87a15.34,15.34,0,0,1,21.69-21.69l65,65L510.55,324.55a15.34,15.34,0,0,1,21.69,21.69L365.33,513.16A15.33,15.33,0,0,1,354.48,517.65Z"/></svg>