<svg id="Capa_1" data-name="Capa 1" xmlns="http://www.w3.org/2000/svg" viewBox="0 0 800 800"><defs><style>.cls-1{fill:#002e6b;}</style></defs><path class="cls-1" d="M195.45,252.11V132.41a10.61,10.61,0,1,0-21.22,0v119.7a33,33,0,0,1-32.95,32.95,13.93,13.93,0,0,0-13.93,14.27l8,353.22a18.68,18.68,0,1,1-37.34,0l8-353.13A13.94,13.94,0,0,0,92,285.06a33,33,0,0,1-32.95-32.95V132.41a10.61,10.61,0,0,0-21.22,0v119.7a54.24,54.24,0,0,0,46.73,53.65L76.78,652a39.89,39.89,0,1,0,79.75,0l-7.82-346.26A54.24,54.24,0,0,0,195.45,252.11Z"/><path class="cls-1" d="M93.93,249.08a10.61,10.61,0,0,0,10.6-10.61V132.41a10.61,10.61,0,1,0-21.21,0V238.47A10.61,10.61,0,0,0,93.93,249.08Z"/><path class="cls-1" d="M139.38,249.08A10.61,10.61,0,0,0,150,238.47V132.41a10.61,10.61,0,1,0-21.21,0V238.47A10.61,10.61,0,0,0,139.38,249.08Z"/><path class="cls-1" d="M400.36,217.33a10.61,10.61,0,0,0,0-21.21c-115.85,0-210.1,94.25-210.1,210.09s94.25,210.1,210.1,210.1,210.09-94.25,210.09-210.1a10.61,10.61,0,0,0-21.21,0c0,104.15-84.73,188.88-188.88,188.88S211.47,510.36,211.47,406.21,296.2,217.33,400.36,217.33Z"/><path class="cls-1" d="M611,585.85A276.86,276.86,0,0,1,204.6,602a10.61,10.61,0,0,0-15,15,298,298,0,0,0,437.53-17.34A10.6,10.6,0,1,0,611,585.85Z"/><path class="cls-1" d="M400.36,108.16A295.85,295.85,0,0,0,225.67,164.7a10.6,10.6,0,1,0,12.45,17.17,276.9,276.9,0,0,1,378.41,51.4A10.61,10.61,0,0,0,633.09,220,296.83,296.83,0,0,0,400.36,108.16Z"/><path class="cls-1" d="M715,134.87a34.93,34.93,0,0,0-26.89-12.57H688A35.14,35.14,0,0,0,653,157.36V652.63a39.4,39.4,0,0,0,78.79,0V451.21l3.08-.12a28.24,28.24,0,0,0,27.23-28.3V264.67A202.61,202.61,0,0,0,715,134.87Zm25.92,287.92a7.09,7.09,0,0,1-6.83,7.11l-23.47.9V652.63a18.18,18.18,0,1,1-36.36,0V157.36A13.88,13.88,0,0,1,688,143.51h.07a13.8,13.8,0,0,1,10.62,5,181.36,181.36,0,0,1,42.19,116.19Z"/></svg>