<svg id="Capa_1" data-name="Capa 1" xmlns="http://www.w3.org/2000/svg" viewBox="0 0 800 800"><defs><style>.cls-1{fill:#fbeb00;}</style></defs><path class="cls-1" d="M400,0C179.09,0,0,179.09,0,400S179.09,800,400,800,800,620.91,800,400,620.91,0,400,0ZM650.34,503.84c-1.23,26.81-5.48,45.11-11.71,61.13A128.79,128.79,0,0,1,565,638.63c-16,6.23-34.32,10.48-61.13,11.71S468.4,651.85,400,651.85s-77-.29-103.84-1.51-45.11-5.48-61.13-11.71A128.79,128.79,0,0,1,161.37,565c-6.23-16-10.48-34.32-11.71-61.13S148.15,468.4,148.15,400s.29-77,1.51-103.84,5.48-45.11,11.71-61.13A128.79,128.79,0,0,1,235,161.37c16-6.23,34.32-10.48,61.13-11.71s35.44-1.51,103.84-1.51,77,.29,103.84,1.51S549,155.14,565,161.37A128.79,128.79,0,0,1,638.63,235c6.23,16,10.48,34.32,11.71,61.13s1.51,35.44,1.51,103.84S651.56,477,650.34,503.84Z"/><circle class="cls-1" cx="400" cy="400" r="83.95" transform="translate(-58.91 69.24) rotate(-9.22)"/><path class="cls-1" d="M605,298.23c-1.12-24.55-5.22-37.89-8.67-46.77a83.42,83.42,0,0,0-47.8-47.79c-8.87-3.45-22.21-7.55-46.76-8.68-26.56-1.21-34.52-1.46-101.77-1.46s-75.21.25-101.77,1.46c-24.55,1.13-37.89,5.23-46.77,8.68a83.44,83.44,0,0,0-47.79,47.79c-3.45,8.88-7.55,22.22-8.68,46.77-1.21,26.56-1.46,34.52-1.46,101.77s.25,75.21,1.46,101.77c1.13,24.55,5.23,37.89,8.68,46.77a83.44,83.44,0,0,0,47.79,47.79c8.88,3.45,22.22,7.55,46.77,8.68,26.55,1.21,34.52,1.46,101.77,1.46s75.22-.25,101.77-1.46c24.55-1.13,37.89-5.23,46.76-8.68a83.42,83.42,0,0,0,47.8-47.79c3.45-8.88,7.55-22.22,8.67-46.77,1.22-26.56,1.47-34.52,1.47-101.77S606.22,324.79,605,298.23ZM400,529.33A129.33,129.33,0,1,1,529.33,400,129.33,129.33,0,0,1,400,529.33ZM534.44,295.78a30.22,30.22,0,1,1,30.22-30.22A30.22,30.22,0,0,1,534.44,295.78Z"/></svg>