<svg id="Capa_1" data-name="Capa 1" xmlns="http://www.w3.org/2000/svg" viewBox="0 0 800 800"><defs><style>.cls-1{fill:#c1c1c1;}</style></defs><path class="cls-1" d="M621.93,357.7h-82V264.52c0-78-62.75-141.39-139.89-141.39S260.12,186.56,260.12,264.52V357.7H178.07a13.06,13.06,0,0,0-13,13.06V723.65a13,13,0,0,0,13,13.05H621.93A13,13,0,0,0,635,723.65V370.76A13.06,13.06,0,0,0,621.93,357.7Zm-335.7-93.18c0-63.56,51-115.28,113.76-115.28S513.77,201,513.77,264.52V357.7H286.23ZM608.87,710.59H191.13V383.81H608.87Z"/></svg>