<svg id="Capa_1" data-name="Capa 1" xmlns="http://www.w3.org/2000/svg" viewBox="0 0 800 800"><defs><style>.cls-1{fill:#002e6b;}</style></defs><g id="pen"><path class="cls-1" d="M253.16,544.64,444.34,213.51l-30.11-17.38L205.68,557.36l170.58,98.48L584.82,294.61l-30.1-17.37L363.54,608.36ZM213.54,695.36l-13.42,59.36,48.17-38.1,122.18-50.74L199.88,567.57ZM592.21,84.83a98.47,98.47,0,0,0-134.53,36L431.61,166c-13.68-8.1-60.2-34.76-60.2-34.76L267.13,311.88l30.11,17.38S340,301,343,279.1c7.68-56.45,41.17-100.35,41.17-100.35l60.2,34.76h0l110.38,63.73h0l40.13,23.17,17.38-30.11-10-5.8,26.06-45.14A98.48,98.48,0,0,0,592.21,84.83ZM432,166.24l-.32-.2.33.19ZM598.15,202l-14.47,25.08L473.31,163.34l14.48-25.09A63.72,63.72,0,1,1,598.15,202Z"/></g></svg>