<svg id="Capa_1" data-name="Capa 1" xmlns="http://www.w3.org/2000/svg" viewBox="0 0 800 800"><defs><style>.cls-1{fill:#002e6b;}</style></defs><path class="cls-1" d="M577.75,682.27l167.56,54-54-167.56,3.32-3.33L530.25,400.91,743.68,187.09,611.61,55,398.17,268.84,251.43,122.09,211.81,82.47a52.4,52.4,0,0,0-74.16,0l-46.1,46.1a52.47,52.47,0,0,0,0,74.17l56.74,56.73h0L277.92,389.1,64.09,602.53,196.16,734.6,410,521.17,574.42,685.6Zm130.06,16.46L597,663l75.13-75.14ZM626,599.81l-409-409,34.47-34.47,409,409ZM611.61,89.24l97.84,97.85L667.62,229l-29.8-29.78-17.1,17.13,29.8,29.78-71.2,71.35-29.85-29.87L532.34,304.7l29.89,29.91-49.1,49.19L415.29,286Zm-503,56.43,46.09-46.11a28.31,28.31,0,0,1,39.95,0l39.62,39.65-86,86-39.64-39.6A28.28,28.28,0,0,1,108.65,145.67Zm91.22,62.21,409,409-34.47,34.47-409-409ZM343.68,553.14l-29.89-29.88-17.1,17.13,29.86,29.85-71.34,71.2-29.78-29.79L208.3,628.74l29.78,29.8-41.92,41.83L98.32,602.53,295,406.21l97.84,97.84Z"/></svg>