<svg id="Capa_1" data-name="Capa 1" xmlns="http://www.w3.org/2000/svg" viewBox="0 0 800 800"><defs><style>.cls-1{fill:#c1c1c1;}</style></defs><path class="cls-1" d="M400,761.53a133.38,133.38,0,0,1-94.94-39.33A92.41,92.41,0,0,0,239.3,695C165.25,695,105,634.72,105,560.67a92.43,92.43,0,0,0-27.23-65.74c-52.37-52.36-52.37-137.56,0-189.92A92.4,92.4,0,0,0,105,239.28C105,165.23,165.25,105,239.3,105a92.37,92.37,0,0,0,65.75-27.24c52.35-52.35,137.55-52.35,189.9,0h0A92.37,92.37,0,0,0,560.7,105c74,0,134.29,60.25,134.29,134.3A92.4,92.4,0,0,0,722.22,305c52.37,52.36,52.37,137.56,0,189.92A92.43,92.43,0,0,0,695,560.67C695,634.72,634.75,695,560.7,695A92.37,92.37,0,0,0,495,722.21,133.4,133.4,0,0,1,400,761.53Zm0-681.75A92.69,92.69,0,0,0,334.26,107a133.43,133.43,0,0,1-95,39.34,93.08,93.08,0,0,0-93,93,133.4,133.4,0,0,1-39.34,95,93.09,93.09,0,0,0,0,131.48,133.44,133.44,0,0,1,39.34,95,93.08,93.08,0,0,0,93,93,133.46,133.46,0,0,1,95,39.33,93,93,0,0,0,131.48,0,133.46,133.46,0,0,1,95-39.33,93.08,93.08,0,0,0,93-93,133.44,133.44,0,0,1,39.34-95,93.09,93.09,0,0,0,0-131.48,133.4,133.4,0,0,1-39.34-95,93.08,93.08,0,0,0-93-93,133.43,133.43,0,0,1-95-39.34h0A92.72,92.72,0,0,0,400,79.78Z"/><path class="cls-1" d="M280.27,540.37a20.67,20.67,0,0,1-14.61-35.27L505.12,265.64a20.66,20.66,0,0,1,29.22,29.21L294.88,534.31A20.59,20.59,0,0,1,280.27,540.37Z"/><path class="cls-1" d="M489.43,526.89a20.66,20.66,0,0,1-14.61-35.28l16.84-16.83A20.67,20.67,0,0,1,520.87,504L504,520.85A20.63,20.63,0,0,1,489.43,526.89Z"/><path class="cls-1" d="M293.74,331.2a20.66,20.66,0,0,1-14.61-35.27L296,279.1a20.66,20.66,0,0,1,29.21,29.22l-16.83,16.83A20.6,20.6,0,0,1,293.74,331.2Z"/></svg>