<svg id="Capa_1" data-name="Capa 1" xmlns="http://www.w3.org/2000/svg" viewBox="0 0 800 800"><defs><style>.cls-1{fill:#c1c1c1;}</style></defs><path class="cls-1" d="M400,39.53C201.23,39.53,39.53,201.23,39.53,400S201.23,760.47,400,760.47,760.47,598.76,760.47,400,598.76,39.53,400,39.53Zm0,690.27C218.15,729.8,70.2,581.85,70.2,400S218.15,70.2,400,70.2,729.8,218.15,729.8,400,581.84,729.8,400,729.8Z"/><path class="cls-1" d="M521.57,384.66H415.86V279a15.34,15.34,0,0,0-30.68,0V384.66H279.47a15.34,15.34,0,0,0,0,30.68H385.18V521.05a15.34,15.34,0,0,0,30.68,0V415.34H521.57a15.34,15.34,0,0,0,0-30.68Z"/></svg>