<svg id="Capa_1" data-name="Capa 1" xmlns="http://www.w3.org/2000/svg" viewBox="0 0 800 800"><defs><style>.cls-1{fill:#c1c1c1;}</style></defs><path class="cls-1" d="M397.64,457.41h-.58C308.71,457.17,212.76,399.35,211,273c2.49-126.69,98.37-184,186.59-184h.56c88.38.24,184.32,58.06,186.13,184.43V274C581.72,400.09,485.87,457.41,397.64,457.41Zm-.09-334.28c-72.07,0-150.4,46.85-152.42,149.94,1.47,102.7,79.84,150,152,150.17h.45c72,0,150.27-46.75,152.45-149.64C548.44,170.49,470.14,123.33,398,123.13Z"/><path class="cls-1" d="M132.35,726.36l-34.17-.13C98.82,583.5,193.54,429.92,400,429.92h0c206.48,0,301.2,153.6,301.82,296.31l-34.17.13C666.88,546.17,528.36,464.11,400,464.09h0C271.64,464.09,133.17,546.15,132.35,726.36Z"/></svg>