<svg id="Capa_1" data-name="Capa 1" xmlns="http://www.w3.org/2000/svg" viewBox="0 0 800 800"><defs><style>.cls-1{fill:#f7f7f7;}.cls-2{fill:#002e6b;}.cls-3{fill:#feee00;}</style></defs><circle class="cls-1" cx="400" cy="400" r="393.87"/><path class="cls-2" d="M401.54,426.05h-.33a117.79,117.79,0,0,1,.32-235.57h.32a117.79,117.79,0,0,1-.31,235.57Zm0-217.18a99.4,99.4,0,0,0-.27,198.79h.28a99.39,99.39,0,0,0,99.39-99.13h0a99.39,99.39,0,0,0-99.13-99.66Z"/><path class="cls-2" d="M594.63,598.47H576.24c0-95.49-77.68-173.18-173.18-173.18S229.88,503,229.88,598.47H211.49c0-105.64,85.94-191.57,191.57-191.57S594.63,492.83,594.63,598.47Z"/><path class="cls-3" d="M400,800C179.44,800,0,620.56,0,400S179.44,0,400,0,800,179.44,800,400,620.56,800,400,800Zm0-787.74C186.2,12.26,12.26,186.2,12.26,400S186.2,787.74,400,787.74,787.74,613.8,787.74,400,613.8,12.26,400,12.26Z"/></svg>