<svg id="Capa_1" data-name="Capa 1" xmlns="http://www.w3.org/2000/svg" viewBox="0 0 800 800"><defs><style>.cls-1{fill:#fff;}</style></defs><path class="cls-1" d="M773.49,750.72,638.74,618.1c61.52-63.38,99.43-149.17,99.43-243.57,0-194.55-160.7-352.82-358.23-352.82S21.71,180,21.71,374.53s160.7,352.81,358.23,352.81a359.81,359.81,0,0,0,235.34-87.15L750.9,773.67a16.1,16.1,0,1,0,22.59-22.95ZM53.9,374.53c0-176.8,146.26-320.63,326-320.63S706,197.73,706,374.53s-146.26,320.62-326,320.62S53.9,551.32,53.9,374.53Z"/></svg>