<svg id="Capa_1" data-name="Capa 1" xmlns="http://www.w3.org/2000/svg" viewBox="0 0 800 800"><defs><style>.cls-1{fill:#002e6b;}</style></defs><path class="cls-1" d="M757.34,755,628.42,628.15c58.86-60.64,95.13-142.72,95.13-233C723.55,209,569.8,57.55,380.81,57.55S38.07,209,38.07,395.11,191.82,732.67,380.81,732.67A344.25,344.25,0,0,0,606,649.29L735.73,777a15.4,15.4,0,0,0,21.61-22ZM68.87,395.11C68.87,226,208.8,88.35,380.81,88.35S692.75,226,692.75,395.11,552.81,701.87,380.81,701.87,68.87,564.25,68.87,395.11Z"/></svg>