<svg id="Capa_1" data-name="Capa 1" xmlns="http://www.w3.org/2000/svg" viewBox="0 0 800 800"><defs><style>.cls-1{fill:#c1c1c1;}</style></defs><path class="cls-1" d="M612.12,761.52a34.41,34.41,0,0,1-16-4L401,654.71a2.23,2.23,0,0,0-2,0L203.92,757.53a34.29,34.29,0,0,1-49.82-36.07l37.29-218a2.12,2.12,0,0,0-.6-1.86l-158-154.45a34.25,34.25,0,0,1,19-58.38L270.05,257a2.15,2.15,0,0,0,1.61-1.17L369.23,57.62a34.3,34.3,0,0,1,61.54,0l97.56,198.16A2.17,2.17,0,0,0,530,257l218.27,31.8a34.25,34.25,0,0,1,19,58.38L609.2,501.6a2.13,2.13,0,0,0-.59,1.86l37.29,218a34.34,34.34,0,0,1-33.78,40.06ZM400,622.32a34.18,34.18,0,0,1,16,4L611.07,729.1a2,2,0,0,0,2.31-.16,1.9,1.9,0,0,0,.84-2.06l-37.29-218a34.28,34.28,0,0,1,9.81-30.25L744.81,324.16a1.89,1.89,0,0,0,.52-2.15,2,2,0,0,0-1.74-1.45L525.33,288.75A34.22,34.22,0,0,1,499.5,270L402,71.81h0a2.18,2.18,0,0,0-3.88,0L300.49,270a34.2,34.2,0,0,1-25.81,18.78L56.4,320.56A2,2,0,0,0,54.67,322a1.88,1.88,0,0,0,.53,2.15L213.25,478.61a34.28,34.28,0,0,1,9.82,30.26l-37.29,218a1.88,1.88,0,0,0,.84,2,2,2,0,0,0,2.31.17L384,626.29A34.25,34.25,0,0,1,400,622.32Z"/></svg>