<svg id="Capa_1" data-name="Capa 1" xmlns="http://www.w3.org/2000/svg" viewBox="0 0 800 800"><defs><style>.cls-1{fill:#002e6b;}</style></defs><path class="cls-1" d="M122,596.2a81.87,81.87,0,0,0,65.41,80.11V727a16.35,16.35,0,1,0,32.7,0V678H579.88V727a16.35,16.35,0,0,0,32.7,0V676.31A81.87,81.87,0,0,0,678,596.2V138.34a81.83,81.83,0,0,0-81.76-81.76H203.77A81.83,81.83,0,0,0,122,138.34Zm32.71-457.86a49.1,49.1,0,0,1,49.05-49.06H596.23a49.1,49.1,0,0,1,49,49.06V350.92H154.72Zm0,245.28H645.28V596.2a49.1,49.1,0,0,1-49,49.06H203.77a49.1,49.1,0,0,1-49.05-49.06ZM481.76,171a16.33,16.33,0,0,1-16.33,16.35H334.59a16.35,16.35,0,1,1,0-32.7H465.41A16.33,16.33,0,0,1,481.76,171ZM318.24,465.38A16.35,16.35,0,0,1,334.57,449H465.41a16.36,16.36,0,0,1,0,32.71H334.59a16.34,16.34,0,0,1-16.35-16.34Z"/></svg>