<svg id="Capa_1" data-name="Capa 1" xmlns="http://www.w3.org/2000/svg" viewBox="0 0 800 800"><defs><style>.cls-1{fill:#022e6d;}.cls-2{fill:#fff;fill-rule:evenodd;}</style></defs><circle class="cls-1" cx="400" cy="400" r="400"/><g id="WA_Logo" data-name="WA Logo"><path class="cls-2" d="M592.41,212.51a252.12,252.12,0,0,0-179.49-74.4c-139.87,0-253.7,113.79-253.76,253.66A253.18,253.18,0,0,0,193,518.58L157,650l134.51-35.27a253.66,253.66,0,0,0,121.26,30.88h.11c139.85,0,253.69-113.81,253.75-253.67A252.11,252.11,0,0,0,592.41,212.51ZM412.92,602.79h-.09A210.48,210.48,0,0,1,305.49,573.4l-7.7-4.57L218,589.77,239.27,512l-5-8A210.28,210.28,0,0,1,202,391.78C202.05,275.53,296.67,181,413,181A210.9,210.9,0,0,1,623.82,392C623.78,508.21,529.16,602.79,412.92,602.79ZM528.6,444.89c-6.34-3.18-37.51-18.51-43.32-20.63s-10-3.17-14.26,3.18-16.38,20.62-20.08,24.85-7.4,4.76-13.74,1.58-26.77-9.86-51-31.45c-18.84-16.81-31.57-37.57-35.27-43.91s-.39-9.78,2.78-12.94c2.86-2.84,6.34-7.4,9.51-11.1s4.23-6.35,6.34-10.58,1.06-7.93-.52-11.1-14.27-34.37-19.55-47.06c-5.15-12.36-10.38-10.69-14.27-10.88-3.69-.19-7.92-.23-12.15-.23a23.31,23.31,0,0,0-16.91,7.93C300.36,288.9,284,304.23,284,335.43S306.7,396.77,309.87,401s44.71,68.25,108.31,95.71a367,367,0,0,0,36.15,13.35c15.19,4.82,29,4.14,39.93,2.51,12.18-1.82,37.51-15.34,42.8-30.14s5.28-27.5,3.7-30.14S534.94,448.06,528.6,444.89Z"/></g></svg>